<?xml version="1.0" encoding="UTF-8"?>
<!DOCTYPE svg PUBLIC "-//W3C//DTD SVG 1.1//EN" "http://www.w3.org/Graphics/SVG/1.1/DTD/svg11.dtd">
<!-- Creator: CorelDRAW 2019 (64 Bit) -->
<svg xmlns="http://www.w3.org/2000/svg" xml:space="preserve" width="793px" height="488px" version="1.1" style="shape-rendering:geometricPrecision; text-rendering:geometricPrecision; image-rendering:optimizeQuality; fill-rule:evenodd; clip-rule:evenodd"
viewBox="0 0 2040.48 1254.87"
 xmlns:xlink="http://www.w3.org/1999/xlink"
 xmlns:xodm="http://www.corel.com/coreldraw/odm/2003">
 <defs>
  <style type="text/css">
   <![CDATA[
    .str0 {stroke:black;stroke-width:2.32;stroke-miterlimit:22.9256}
    .fil2 {fill:none}
    .fil1 {fill:none;fill-rule:nonzero}
    .fil0 {fill:url(#id2);fill-rule:nonzero}
   ]]>
  </style>
   <clipPath id="id0" style="clip-rule:nonzero">
    <path d="M2040.27 50.04l0 1154.82c-1.75,17.1 -4.51,33.76 -8.83,50.01l-2031.44 0c0,-137.06 504.31,-117.99 627.68,-283.04 39.37,-52.66 63.01,-112.24 82.42,-173.54 22.44,-70.44 39.28,-143.1 68.16,-210.29 132.82,-309.37 428.09,-529.58 785.26,-577.62 137.33,-18.47 320.56,-14.53 476.75,30.17 0.46,0.18 0,8.89 0,9.49z"/>
   </clipPath>
   <clipPath id="id1">
    <path d="M2040.27 50.04l0 1154.82c-1.75,17.1 -4.51,33.76 -8.83,50.01l-2031.44 0c0,-137.06 504.31,-117.99 627.68,-283.04 39.37,-52.66 63.01,-112.24 82.42,-173.54 22.44,-70.44 39.28,-143.1 68.16,-210.29 132.82,-309.37 428.09,-529.58 785.26,-577.62 137.33,-18.47 320.56,-14.53 476.75,30.17 0.46,0.18 0,8.89 0,9.49z"/>
   </clipPath>
  <linearGradient id="id2" gradientUnits="userSpaceOnUse" x1="237" y1="1434.43" x2="2137.44" y2="-146.5">
   <stop offset="0" style="stop-opacity:1; stop-color:#079F9D"/>
   <stop offset="0.521569" style="stop-opacity:1; stop-color:#19B0C2"/>
   <stop offset="1" style="stop-opacity:1; stop-color:#2CC2E7"/>
  </linearGradient>
 </defs>
 <g id="Camada_x0020_1">
  <metadata id="CorelCorpID_0Corel-Layer"/>
  <path class="fil0" d="M2040.27 50.04l0 1154.82c-1.75,17.1 -4.51,33.76 -8.83,50.01l-2031.44 0c0,-137.06 504.31,-117.99 627.68,-283.04 39.37,-52.66 63.01,-112.24 82.42,-173.54 22.44,-70.44 39.28,-143.1 68.16,-210.29 132.82,-309.37 428.09,-529.58 785.26,-577.62 137.33,-18.47 320.56,-14.53 476.75,30.17 0.46,0.18 0,8.89 0,9.49z"/>
  <g style="clip-path:url(#id0)">
  </g>
  <path id="1" class="fil1" d="M2040.27 50.04l0 1154.82c-1.75,17.1 -4.51,33.76 -8.83,50.01l-2031.44 0c0,-137.06 504.31,-117.99 627.68,-283.04 39.37,-52.66 63.01,-112.24 82.42,-173.54 22.44,-70.44 39.28,-143.1 68.16,-210.29 132.82,-309.37 428.09,-529.58 785.26,-577.62 137.33,-18.47 320.56,-14.53 476.75,30.17 0.46,0.18 0,8.89 0,9.49z"/>
  <g style="clip-path:url(#id1)">
   <path id="2" class="fil2 str0" d="M0 0l2040.48 1254.87m0 -1254.87l-2040.48 1254.87"/>
  </g>
 </g>
</svg>
