<?xml version="1.0" encoding="UTF-8"?>
<!DOCTYPE svg PUBLIC "-//W3C//DTD SVG 1.1//EN" "http://www.w3.org/Graphics/SVG/1.1/DTD/svg11.dtd">
<!-- Creator: CorelDRAW 2019 (64 Bit) -->
<svg xmlns="http://www.w3.org/2000/svg" xml:space="preserve" width="770px" height="656px" version="1.1" style="shape-rendering:geometricPrecision; text-rendering:geometricPrecision; image-rendering:optimizeQuality; fill-rule:evenodd; clip-rule:evenodd"
viewBox="0 0 103.23 87.99"
 xmlns:xlink="http://www.w3.org/1999/xlink"
 xmlns:xodm="http://www.corel.com/coreldraw/odm/2003">
 <defs>
  <style type="text/css">
   <![CDATA[
    .fil39 {fill:#FEFEFE}
    .fil26 {fill:#17A2A0;fill-rule:nonzero}
    .fil22 {fill:#003B93;fill-rule:nonzero}
    .fil31 {fill:#054DA1;fill-rule:nonzero}
    .fil23 {fill:#054DA3;fill-rule:nonzero}
    .fil21 {fill:#082F60;fill-rule:nonzero}
    .fil25 {fill:#11161D;fill-rule:nonzero}
    .fil3 {fill:#282F38;fill-rule:nonzero}
    .fil36 {fill:#31466B;fill-rule:nonzero}
    .fil35 {fill:#3F4650;fill-rule:nonzero}
    .fil1 {fill:#3F4850;fill-rule:nonzero}
    .fil15 {fill:#59A5EB;fill-rule:nonzero}
    .fil30 {fill:#673A15;fill-rule:nonzero}
    .fil18 {fill:#679E38;fill-rule:nonzero}
    .fil7 {fill:#8E3D00;fill-rule:nonzero}
    .fil28 {fill:#90561F;fill-rule:nonzero}
    .fil8 {fill:#AF540A;fill-rule:nonzero}
    .fil37 {fill:#B11A1A;fill-rule:nonzero}
    .fil11 {fill:#BCB6B3;fill-rule:nonzero}
    .fil14 {fill:#BFC8C8;fill-rule:nonzero}
    .fil33 {fill:#C3CCD4;fill-rule:nonzero}
    .fil4 {fill:#C4CDD6;fill-rule:nonzero}
    .fil2 {fill:#CCCCCC;fill-rule:nonzero}
    .fil41 {fill:#CCCCCC;fill-rule:nonzero}
    .fil9 {fill:lightgrey;fill-rule:nonzero}
    .fil32 {fill:#D4DBDF;fill-rule:nonzero}
    .fil12 {fill:#D82B28;fill-rule:nonzero}
    .fil5 {fill:#D8751C;fill-rule:nonzero}
    .fil38 {fill:#DDD6D6;fill-rule:nonzero}
    .fil10 {fill:#E4E4E4;fill-rule:nonzero}
    .fil6 {fill:#E88536;fill-rule:nonzero}
    .fil24 {fill:#F4C141;fill-rule:nonzero}
    .fil20 {fill:#F4C142;fill-rule:nonzero}
    .fil17 {fill:#FFF7E1;fill-rule:nonzero}
    .fil40 {fill:#FFF7F0;fill-rule:nonzero}
    .fil19 {fill:#FFF8E0;fill-rule:nonzero}
    .fil13 {fill:white;fill-rule:nonzero}
    .fil34 {fill:#2D3842;fill-rule:nonzero;fill-opacity:0.200000}
    .fil27 {fill:#17A2A0;fill-rule:nonzero;fill-opacity:0.501961}
    .fil16 {fill:#59A5EB;fill-rule:nonzero;fill-opacity:0.501961}
    .fil29 {fill:#673A15;fill-rule:nonzero;fill-opacity:0.501961}
    .fil0 {fill:url(#id0);fill-rule:nonzero}
   ]]>
  </style>
  <linearGradient id="id0" gradientUnits="userSpaceOnUse" x1="84.36" y1="72.77" x2="6.38" y2="-16.1">
   <stop offset="0" style="stop-opacity:1; stop-color:#F3AA32"/>
   <stop offset="1" style="stop-opacity:1; stop-color:yellow"/>
  </linearGradient>
 </defs>
 <g id="Camada_x0020_1">
  <metadata id="CorelCorpID_0Corel-Layer"/>
  <path class="fil0" d="M100.89 51.95c-0.62,-2.55 -1.47,-4.89 -2.39,-7.05 -0.92,-2.15 -1.93,-4.11 -2.94,-5.9 -0.94,-1.66 -1.88,-3.17 -2.8,-4.54 -0.01,-0.04 -0.02,-0.08 -0.03,-0.12 -0.22,-0.64 -0.43,-1.28 -0.63,-1.92 -0.98,-3.07 -5.23,-14.03 -17.26,-17.49 -0.34,-0.2 -0.69,-0.39 -1.06,-0.59 -1.56,-0.83 -3.36,-1.57 -5.37,-2.1 -0.25,-0.07 -0.51,-0.13 -0.77,-0.19 -0.26,-0.05 -0.52,-0.12 -0.78,-0.17 -0.54,-0.08 -1.07,-0.2 -1.63,-0.25 -1.11,-0.15 -2.26,-0.18 -3.45,-0.18 -2.37,0.07 -4.88,0.46 -7.4,1.24 -1.26,0.39 -2.53,0.87 -3.78,1.45 -0.63,0.29 -1.27,0.58 -1.88,0.93 -0.31,0.17 -0.62,0.33 -0.93,0.5 -0.31,0.18 -0.61,0.37 -0.92,0.56 -2.45,1.49 -4.83,3.3 -7.13,5.35 -1.76,1.57 -3.46,3.28 -5.12,5.12 -7.14,5.03 -12.26,10.11 -13.11,12.17 -0.44,1.08 0.02,2.71 1.16,4.74 -0.34,0.64 -0.68,1.27 -1.01,1.92 -0.83,1.62 -1.61,3.28 -2.28,5.06l-0.25 0.67 -0.23 0.69 -0.11 0.35 -0.1 0.37c-0.07,0.25 -0.14,0.48 -0.19,0.76 -0.05,0.28 -0.11,0.52 -0.13,0.86 -0.01,0.16 -0.03,0.31 -0.03,0.49 0,0.1 0.01,0.2 0.02,0.3 0.01,0.1 0.02,0.2 0.04,0.29 0.14,0.77 0.45,1.36 0.78,1.86 0.67,0.99 1.43,1.7 2.21,2.36 0.78,0.65 1.59,1.22 2.41,1.76 1.64,1.08 3.35,2.02 5.08,2.9 3.48,1.76 7.09,3.28 10.78,4.7 4.84,1.84 9.66,3.43 14.45,4.8 11.02,7.98 21.72,13.72 26.45,12.32 5.81,-1.72 9.74,-4.92 12.32,-8.94 0.08,-0.06 0.16,-0.11 0.25,-0.18l0.15 -0.12 0.12 -0.1c2.58,-2.15 4.72,-4.75 6.13,-7.61 1.42,-2.86 2.11,-5.92 2.22,-8.83 0.13,-2.92 -0.25,-5.69 -0.86,-8.24zm-60.05 13.83l0 0c-3.62,-1.39 -7.15,-2.87 -10.49,-4.54 -1.67,-0.83 -3.29,-1.71 -4.8,-2.68 -0.75,-0.48 -1.48,-0.99 -2.13,-1.53 -0.65,-0.53 -1.25,-1.1 -1.62,-1.65 -0.19,-0.27 -0.29,-0.52 -0.32,-0.66 0,-0.02 -0.01,-0.03 -0.01,-0.05 0,-0.01 0,-0.02 0,-0.04l0.01 -0.19c0,-0.12 0.05,-0.33 0.08,-0.5 0.02,-0.18 0.08,-0.38 0.13,-0.58l0.07 -0.29 0.1 -0.3 0.19 -0.61 0.21 -0.6c0.59,-1.63 1.31,-3.23 2.07,-4.79 0.07,-0.14 0.14,-0.28 0.21,-0.42 4.4,6.01 12.83,14.13 21.95,21.47 -1.89,-0.65 -3.77,-1.33 -5.65,-2.04zm27.03 -51.89l0 0c-7.91,-0.21 -16.53,2.92 -24.18,7.07 1.38,-1.17 2.79,-2.24 4.22,-3.18 2.28,-1.52 4.63,-2.69 6.98,-3.53 2.35,-0.83 4.7,-1.3 6.95,-1.46 1.12,-0.05 2.21,-0.07 3.27,0.03 0.53,0.02 1.05,0.11 1.56,0.16 0.26,0.04 0.51,0.09 0.76,0.13 0.25,0.04 0.49,0.08 0.74,0.14 1.16,0.25 2.26,0.58 3.29,0.95 -1.14,-0.17 -2.34,-0.28 -3.59,-0.31zm31.94 46.18l0 0c-0.21,2.68 -0.93,5.4 -2.28,7.92 -0.52,0.97 -1.13,1.9 -1.83,2.79 3.41,-11.29 0.29,-25.46 -1.82,-32.74 0.26,0.47 0.51,0.96 0.76,1.45 0.92,1.81 1.81,3.78 2.62,5.91 0.81,2.14 1.53,4.44 2.02,6.9 0.48,2.46 0.74,5.09 0.53,7.77z"/>
  <path class="fil1" d="M41.78 17.01c-0.29,0.18 -0.58,0.23 -0.65,0.12 -0.07,-0.11 0.11,-0.35 0.41,-0.53 0.29,-0.18 0.58,-0.23 0.65,-0.12 0.07,0.11 -0.11,0.35 -0.41,0.53z"/>
  <path class="fil1" d="M40.97 13.46c-0.29,0.18 -0.58,0.23 -0.65,0.12 -0.07,-0.11 0.11,-0.35 0.41,-0.53 0.29,-0.18 0.58,-0.23 0.65,-0.12 0.07,0.11 -0.11,0.35 -0.41,0.53z"/>
  <path class="fil1" d="M32.21 1.42c-0.29,0.18 -0.48,0.42 -0.41,0.53 0.07,0.11 0.36,0.06 0.66,-0.12 0.29,-0.18 0.47,-0.42 0.41,-0.53 -0.07,-0.11 -0.37,-0.06 -0.66,0.12z"/>
  <path class="fil1" d="M35 3.73c-0.29,0.18 -0.48,0.42 -0.41,0.53 0.07,0.11 0.37,0.06 0.66,-0.12 0.29,-0.18 0.48,-0.42 0.41,-0.53 -0.07,-0.11 -0.37,-0.06 -0.66,0.12z"/>
  <path class="fil2" d="M41.32 20.65l-1.35 0.83 -2.82 -5.03 -0.12 -0.21 -1.59 -2.85 -0.52 -0.94c-2.72,1.45 -5.41,2.76 -7.24,3.47l0.01 3.21 -1.49 0.91 -0.83 -3.68 -2.91 -2.4 1.49 -0.92 2.86 1.46c1.46,-1.32 3.84,-3.12 6.36,-4.89l-3.59 -5.34 -0.22 -0.33 -0.4 -0.59 -0.19 -0.29 -1.38 -2.04 1.35 -0.83 1.66 1.32 0.48 0.38 0.83 -0.51c0.25,-0.15 0.57,-0.07 0.72,0.17 0.16,0.25 0.08,0.57 -0.17,0.73l-0.51 0.31 0.62 0.49 1.37 1.09 0.77 -0.47c0.25,-0.16 0.57,-0.08 0.73,0.17 0.15,0.24 0.07,0.57 -0.18,0.72l-0.45 0.28 2.56 2.04c0.59,-0.39 1.18,-0.75 1.73,-1.09 5.61,-3.45 6.78,-1.94 6.78,-1.94 0,0 0.82,1.73 -4.79,5.18 -0.55,0.33 -1.14,0.69 -1.76,1.05l0.23 1.09 0.02 0.09 0.42 2.02 0.45 -0.28c0.25,-0.15 0.57,-0.07 0.72,0.17 0.15,0.25 0.08,0.57 -0.17,0.73l-0.78 0.47 0.15 0.7 0.37 1.79 0.51 -0.32c0.24,-0.15 0.57,-0.07 0.72,0.18 0.15,0.24 0.08,0.57 -0.17,0.72l-0.84 0.51 0.56 2.67z"/>
  <path class="fil3" d="M43.2 4.48c-0.21,-0.03 -0.43,0.01 -0.63,0.18 0,0 0.31,0.06 0.65,0.33 0.18,0.15 0.31,0.36 0.36,0.59 0.09,0.42 0,0.72 0,0.72 0.24,-0.09 0.38,-0.28 0.45,-0.48 0.21,-0.6 -0.2,-1.26 -0.83,-1.34z"/>
  <path class="fil4" d="M27.33 15.4c-0.83,0.52 -1.56,0.85 -1.62,0.75 -0.06,-0.1 0.56,-0.6 1.4,-1.11 0.83,-0.51 1.56,-0.85 1.62,-0.75 0.06,0.1 -0.56,0.6 -1.4,1.11z"/>
  <polygon class="fil4" points="41.96,14.63 40.13,11.64 39.99,11.72 41.83,14.71 "/>
  <polygon class="fil4" points="42.77,18.21 40.94,15.22 40.8,15.3 42.63,18.29 "/>
  <polygon class="fil4" points="34.41,2.34 36.25,5.32 36.11,5.41 34.28,2.42 "/>
  <polygon class="fil4" points="31.59,0 33.42,2.99 33.29,3.07 31.45,0.09 "/>
  <path class="fil4" d="M39.36 11.2l-3.92 2.19 -0.52 -0.94c0.81,-0.42 4.21,-2.34 4.21,-2.34l0.23 1.09z"/>
  <polygon class="fil4" points="32.37,3.08 29.58,4.27 29.36,3.94 31.75,2.59 "/>
  <polygon class="fil4" points="40.17,15.1 37.15,16.45 37.03,16.24 40.02,14.4 "/>
  <path class="fil4" d="M30.92 11.77c-0.04,-0.06 -0.02,-0.15 0.04,-0.2 0.16,-0.12 0.35,-0.26 0.56,-0.42 0.07,-0.05 0.16,-0.03 0.21,0.03 0.05,0.07 0.04,0.16 -0.03,0.21 -0.21,0.16 -0.4,0.3 -0.56,0.42 -0.06,0.05 -0.16,0.04 -0.21,-0.03 0,0 0,0 -0.01,-0.01zm1.13 -0.83l0 0c-0.04,-0.07 -0.02,-0.16 0.04,-0.2 0.18,-0.13 0.37,-0.27 0.57,-0.41 0.07,-0.05 0.16,-0.03 0.21,0.04 0.05,0.06 0.03,0.16 -0.04,0.21 -0.19,0.13 -0.38,0.27 -0.57,0.4 -0.06,0.05 -0.16,0.03 -0.2,-0.03 -0.01,-0.01 -0.01,-0.01 -0.01,-0.01zm1.14 -0.81l0 0c-0.04,-0.07 -0.02,-0.16 0.04,-0.2 0.19,-0.13 0.38,-0.27 0.58,-0.4 0.07,-0.05 0.16,-0.03 0.21,0.03 0.05,0.07 0.03,0.16 -0.04,0.21 -0.19,0.14 -0.39,0.27 -0.57,0.4 -0.07,0.05 -0.17,0.03 -0.21,-0.03 0,-0.01 -0.01,-0.01 -0.01,-0.01zm1.15 -0.8l0 0c-0.04,-0.07 -0.02,-0.16 0.05,-0.2 0.19,-0.14 0.38,-0.27 0.57,-0.4 0.07,-0.05 0.17,-0.03 0.21,0.04 0.05,0.07 0.03,0.16 -0.04,0.21 -0.19,0.13 -0.38,0.26 -0.57,0.39 -0.07,0.05 -0.17,0.03 -0.21,-0.03 0,-0.01 -0.01,-0.01 -0.01,-0.01zm1.16 -0.79l0 0c-0.04,-0.07 -0.03,-0.16 0.04,-0.21 0.2,-0.13 0.39,-0.26 0.58,-0.39 0.07,-0.05 0.16,-0.03 0.21,0.04 0.04,0.07 0.03,0.16 -0.04,0.21 -0.19,0.13 -0.39,0.26 -0.58,0.39 -0.07,0.05 -0.16,0.03 -0.21,-0.04 0,0 0,0 0,0zm1.16 -0.79l0 0c-0.04,-0.07 -0.03,-0.16 0.04,-0.2 0.2,-0.14 0.39,-0.27 0.58,-0.4 0.07,-0.04 0.16,-0.02 0.21,0.04 0.05,0.07 0.03,0.17 -0.04,0.21 -0.19,0.13 -0.38,0.26 -0.58,0.39 -0.07,0.05 -0.16,0.03 -0.21,-0.04 0,0 0,0 0,0zm1.16 -0.79l0 0c-0.04,-0.06 -0.02,-0.15 0.04,-0.2l0.58 -0.39c0.07,-0.04 0.17,-0.03 0.21,0.04 0.05,0.08 0.03,0.16 -0.04,0.21l-0.58 0.39c-0.07,0.05 -0.16,0.03 -0.21,-0.04 0,0 0,0 0,-0.01zm1.16 -0.78l0 0c-0.04,-0.06 -0.02,-0.15 0.05,-0.2 0.37,-0.24 0.58,-0.39 0.58,-0.39 0.07,-0.04 0.17,-0.03 0.21,0.04 0.05,0.07 0.03,0.17 -0.04,0.21 0,0 -0.22,0.15 -0.59,0.39 -0.07,0.05 -0.16,0.03 -0.2,-0.04 -0.01,0 -0.01,0 -0.01,-0.01z"/>
  <path class="fil4" d="M31.98 13.49c-0.04,-0.08 -0.01,-0.17 0.07,-0.2 0.18,-0.09 0.39,-0.19 0.62,-0.31 0.08,-0.04 0.17,-0.01 0.21,0.07 0.03,0.07 0,0.16 -0.07,0.2 -0.24,0.12 -0.45,0.22 -0.63,0.31 -0.07,0.03 -0.15,0.01 -0.19,-0.06 -0.01,0 -0.01,-0.01 -0.01,-0.01zm1.25 -0.63l0 0c-0.04,-0.07 -0.01,-0.16 0.07,-0.2 0.2,-0.1 0.4,-0.21 0.62,-0.32 0.07,-0.04 0.16,-0.01 0.2,0.06 0.04,0.07 0.01,0.16 -0.06,0.2 -0.22,0.12 -0.43,0.22 -0.63,0.33 -0.07,0.03 -0.15,0.01 -0.19,-0.06 0,0 -0.01,0 -0.01,-0.01zm1.24 -0.65l0 0c-0.04,-0.07 -0.01,-0.16 0.06,-0.2 0.21,-0.11 0.41,-0.22 0.62,-0.33 0.07,-0.04 0.16,-0.02 0.2,0.06 0.04,0.07 0.02,0.16 -0.06,0.2 -0.21,0.11 -0.41,0.23 -0.61,0.33 -0.07,0.04 -0.16,0.02 -0.2,-0.05 0,0 -0.01,0 -0.01,-0.01zm1.24 -0.66l0 0c-0.04,-0.07 -0.02,-0.17 0.06,-0.2 0.2,-0.12 0.41,-0.23 0.61,-0.34 0.07,-0.04 0.17,-0.01 0.21,0.06 0.04,0.07 0.01,0.16 -0.06,0.2 -0.21,0.11 -0.42,0.23 -0.62,0.34 -0.07,0.04 -0.16,0.01 -0.2,-0.05 0,-0.01 0,-0.01 0,-0.01zm1.23 -0.67l0 0c-0.04,-0.08 -0.02,-0.17 0.06,-0.21 0.2,-0.11 0.41,-0.22 0.61,-0.33 0.07,-0.04 0.16,-0.02 0.2,0.05 0.04,0.08 0.02,0.17 -0.06,0.21 -0.2,0.11 -0.4,0.22 -0.61,0.34 -0.07,0.03 -0.16,0.01 -0.2,-0.06 0,0 0,0 0,0zm1.22 -0.68l0 0c-0.04,-0.07 -0.01,-0.16 0.06,-0.2 0.21,-0.12 0.42,-0.23 0.61,-0.34 0.08,-0.04 0.17,-0.02 0.21,0.05 0.04,0.08 0.01,0.17 -0.06,0.21 -0.2,0.11 -0.4,0.22 -0.61,0.34 -0.07,0.04 -0.16,0.01 -0.2,-0.05 -0.01,-0.01 -0.01,-0.01 -0.01,-0.01zm1.23 -0.68l0 0c-0.04,-0.07 -0.02,-0.16 0.05,-0.21l0.62 -0.34c0.07,-0.04 0.16,-0.01 0.2,0.06 0.04,0.07 0.01,0.16 -0.06,0.2l-0.61 0.35c-0.07,0.04 -0.16,0.01 -0.2,-0.06 0,0 0,0 0,0zm1.22 -0.69l0 0c-0.04,-0.07 -0.02,-0.16 0.06,-0.2 0.38,-0.22 0.61,-0.35 0.61,-0.35 0.07,-0.04 0.16,-0.01 0.2,0.06 0.04,0.07 0.02,0.16 -0.05,0.2 0,0 -0.23,0.13 -0.62,0.35 -0.07,0.04 -0.16,0.02 -0.2,-0.05 0,0 0,-0.01 0,-0.01z"/>
  <path class="fil2" d="M42.21 57.96c-0.01,0 -0.02,0 -0.03,0 -0.53,-0.08 -1.05,-0.17 -1.58,-0.26 -0.15,-0.02 -0.24,-0.16 -0.22,-0.31 0.03,-0.14 0.17,-0.24 0.31,-0.21 0.52,0.08 1.05,0.17 1.57,0.25 0.15,0.02 0.25,0.16 0.23,0.3 -0.03,0.14 -0.15,0.24 -0.28,0.23zm-3.15 -0.54l0 0c-0.01,0 -0.03,0 -0.04,-0.01 -0.53,-0.1 -1.05,-0.21 -1.57,-0.32 -0.14,-0.03 -0.24,-0.17 -0.2,-0.32 0.03,-0.14 0.17,-0.23 0.31,-0.2 0.51,0.11 1.04,0.22 1.56,0.32 0.15,0.03 0.24,0.17 0.21,0.31 -0.02,0.13 -0.14,0.22 -0.27,0.22zm-3.13 -0.68l0 0c-0.01,0 -0.03,0 -0.04,-0.01 -0.53,-0.13 -1.05,-0.26 -1.56,-0.4 -0.14,-0.04 -0.22,-0.19 -0.19,-0.33 0.04,-0.14 0.19,-0.22 0.33,-0.18 0.5,0.13 1.02,0.27 1.54,0.39 0.14,0.04 0.23,0.18 0.2,0.33 -0.03,0.12 -0.15,0.21 -0.28,0.2zm-3.08 -0.85l0 0c-0.02,0 -0.04,0 -0.06,-0.01 -0.52,-0.16 -1.03,-0.32 -1.53,-0.5 -0.14,-0.04 -0.21,-0.2 -0.16,-0.33 0.04,-0.14 0.2,-0.22 0.34,-0.17 0.49,0.17 1,0.34 1.51,0.49 0.14,0.05 0.21,0.2 0.17,0.34 -0.04,0.12 -0.15,0.19 -0.27,0.18zm-3.02 -1.04l0 0c-0.02,0 -0.05,-0.01 -0.08,-0.02 -0.5,-0.2 -1,-0.4 -1.49,-0.61 -0.13,-0.06 -0.19,-0.22 -0.13,-0.35 0.05,-0.14 0.21,-0.2 0.35,-0.14 0.47,0.21 0.97,0.41 1.46,0.6 0.14,0.06 0.21,0.21 0.16,0.35 -0.05,0.11 -0.15,0.17 -0.27,0.17zm-2.93 -1.28l0 0c-0.03,0 -0.06,-0.01 -0.1,-0.02 -0.48,-0.24 -0.96,-0.49 -1.43,-0.74 -0.13,-0.07 -0.17,-0.24 -0.1,-0.36 0.07,-0.13 0.23,-0.18 0.36,-0.11 0.45,0.25 0.93,0.49 1.41,0.73 0.13,0.06 0.18,0.22 0.12,0.35 -0.05,0.1 -0.15,0.16 -0.26,0.15zm-2.8 -1.53l0 0c-0.04,0 -0.08,-0.02 -0.12,-0.04 -0.29,-0.17 -0.57,-0.35 -0.85,-0.53 -0.17,-0.12 -0.34,-0.23 -0.51,-0.35 -0.12,-0.08 -0.15,-0.25 -0.06,-0.37 0.08,-0.12 0.24,-0.15 0.37,-0.06 0.16,0.11 0.33,0.22 0.5,0.33 0.27,0.18 0.55,0.36 0.83,0.53 0.12,0.07 0.16,0.24 0.08,0.36 -0.05,0.09 -0.14,0.13 -0.24,0.13zm-2.63 -1.81l0 0c-0.05,-0.01 -0.1,-0.02 -0.15,-0.06 -0.42,-0.33 -0.84,-0.68 -1.24,-1.03 -0.11,-0.09 -0.12,-0.26 -0.03,-0.37 0.1,-0.11 0.27,-0.12 0.38,-0.03 0.39,0.35 0.8,0.69 1.22,1.01 0.12,0.09 0.14,0.26 0.05,0.37 -0.06,0.08 -0.15,0.11 -0.23,0.11zm-2.4 -2.11l0 0c-0.06,0 -0.13,-0.03 -0.17,-0.08 -0.39,-0.38 -0.76,-0.77 -1.12,-1.17 -0.09,-0.11 -0.09,-0.27 0.02,-0.37 0.11,-0.1 0.28,-0.09 0.38,0.02 0.35,0.39 0.72,0.77 1.09,1.14 0.11,0.11 0.11,0.28 0,0.38 -0.05,0.06 -0.13,0.08 -0.2,0.08zm-2.13 -2.38l0 0c-0.07,-0.01 -0.15,-0.04 -0.2,-0.1 -0.33,-0.43 -0.65,-0.87 -0.95,-1.3 -0.09,-0.12 -0.06,-0.29 0.07,-0.37 0.12,-0.09 0.28,-0.06 0.37,0.07 0.29,0.42 0.61,0.85 0.93,1.27 0.09,0.11 0.07,0.28 -0.04,0.37 -0.05,0.04 -0.12,0.06 -0.18,0.06zm-1.81 -2.63l0 0c-0.08,-0.01 -0.16,-0.06 -0.21,-0.14 -0.28,-0.46 -0.53,-0.94 -0.77,-1.42 -0.07,-0.13 -0.01,-0.29 0.12,-0.35 0.13,-0.07 0.29,-0.01 0.36,0.12 0.23,0.46 0.48,0.93 0.75,1.38 0.07,0.13 0.03,0.29 -0.1,0.37 -0.04,0.03 -0.1,0.04 -0.15,0.04zm-1.41 -2.87l0 0c-0.1,0 -0.19,-0.06 -0.23,-0.16 -0.21,-0.5 -0.39,-1.02 -0.55,-1.53 -0.04,-0.14 0.04,-0.29 0.18,-0.33 0.14,-0.04 0.29,0.03 0.33,0.17 0.15,0.5 0.33,1 0.53,1.49 0.06,0.13 -0.01,0.29 -0.15,0.34 -0.03,0.02 -0.07,0.03 -0.11,0.02zm-0.95 -3.04l0 0c-0.12,-0.01 -0.22,-0.09 -0.25,-0.21 -0.11,-0.53 -0.21,-1.07 -0.28,-1.6 -0.02,-0.14 0.09,-0.28 0.23,-0.3 0.15,-0.02 0.28,0.09 0.3,0.23 0.07,0.52 0.16,1.04 0.27,1.55 0.04,0.15 -0.06,0.29 -0.2,0.32 -0.02,0.01 -0.05,0.01 -0.07,0.01zm-0.41 -3.17l0 0c-0.14,-0.01 -0.25,-0.12 -0.25,-0.26 -0.01,-0.31 -0.01,-0.62 0.01,-0.93 0.01,-0.23 0.03,-0.47 0.06,-0.7 0.02,-0.15 0.14,-0.25 0.29,-0.23 0.15,0.01 0.25,0.14 0.24,0.29 -0.03,0.22 -0.05,0.45 -0.06,0.67 -0.01,0.29 -0.02,0.59 -0.01,0.89 0,0.15 -0.11,0.27 -0.26,0.27 -0.01,0 -0.01,0 -0.02,0zm0.35 -3.16l0 0c-0.01,0 -0.03,-0.01 -0.05,-0.01 -0.14,-0.04 -0.23,-0.18 -0.19,-0.32 0.13,-0.52 0.29,-1.04 0.49,-1.56 0.05,-0.13 0.21,-0.2 0.34,-0.15 0.14,0.05 0.21,0.21 0.16,0.34 -0.19,0.5 -0.35,1 -0.47,1.5 -0.03,0.12 -0.15,0.2 -0.28,0.2zm1.13 -2.99l0 0c-0.03,0 -0.07,-0.01 -0.1,-0.02 -0.14,-0.07 -0.19,-0.23 -0.12,-0.36 0.24,-0.47 0.5,-0.95 0.8,-1.41 0.07,-0.13 0.24,-0.17 0.36,-0.09 0.13,0.08 0.17,0.24 0.09,0.37 -0.29,0.45 -0.55,0.91 -0.78,1.37 -0.05,0.09 -0.15,0.15 -0.25,0.14zm1.69 -2.71l0 0c-0.05,0 -0.1,-0.02 -0.15,-0.05 -0.11,-0.09 -0.14,-0.25 -0.05,-0.37 0.31,-0.42 0.65,-0.85 1.01,-1.27 0.09,-0.11 0.26,-0.12 0.37,-0.03 0.11,0.1 0.13,0.27 0.03,0.38 -0.35,0.41 -0.68,0.82 -0.98,1.24 -0.06,0.07 -0.14,0.11 -0.23,0.1zm2.07 -2.43l0 0c-0.06,-0.01 -0.12,-0.03 -0.17,-0.08 -0.11,-0.1 -0.11,-0.27 -0.01,-0.37 0.37,-0.38 0.75,-0.76 1.15,-1.13 0.11,-0.1 0.28,-0.1 0.38,0.01 0.1,0.11 0.09,0.27 -0.02,0.37 -0.39,0.37 -0.77,0.74 -1.12,1.12 -0.06,0.05 -0.14,0.08 -0.21,0.08zm2.33 -2.18l0 0c-0.07,-0.01 -0.14,-0.04 -0.19,-0.1 -0.09,-0.11 -0.08,-0.28 0.04,-0.37 0.4,-0.35 0.82,-0.69 1.25,-1.02 0.11,-0.08 0.28,-0.06 0.37,0.05 0.09,0.12 0.07,0.29 -0.05,0.38 -0.42,0.32 -0.83,0.66 -1.23,0.99 -0.05,0.05 -0.12,0.07 -0.19,0.07zm2.53 -1.96l0 0c-0.08,0 -0.15,-0.04 -0.2,-0.11 -0.08,-0.12 -0.06,-0.29 0.06,-0.37 0.44,-0.31 0.89,-0.61 1.34,-0.9 0.12,-0.08 0.29,-0.04 0.37,0.08 0.08,0.12 0.04,0.29 -0.08,0.37 -0.45,0.28 -0.89,0.58 -1.32,0.88 -0.05,0.04 -0.11,0.06 -0.17,0.05z"/>
  <path class="fil5" d="M94.42 86.79l-29.27 0c-1.94,0 -3.52,-1.57 -3.52,-3.52l0 -41.76c0,-1.94 1.58,-3.52 3.52,-3.52l29.27 0c1.95,0 3.52,1.58 3.52,3.52l0 41.76c0,1.95 -1.57,3.52 -3.52,3.52z"/>
  <path class="fil6" d="M68.96 55.26c8.26,-6.41 18.83,-9.44 28.98,-8.36l0 -5.39c0,-1.94 -1.57,-3.52 -3.52,-3.52l-29.27 0c-1.94,0 -3.52,1.58 -3.52,3.52l0 23.39c1.42,-3.88 4.04,-7.13 7.33,-9.64z"/>
  <polygon class="fil3" points="70.89,87.99 65.46,87.99 65.46,86.79 70.89,86.79 "/>
  <polygon class="fil3" points="94.11,87.99 88.68,87.99 88.68,86.79 94.11,86.79 "/>
  <path class="fil7" d="M94.11 86.79l-28.65 0 0 -26.97c0,-1.7 1.38,-3.07 3.07,-3.07l22.51 0c1.7,0 3.07,1.37 3.07,3.07l0 26.97z"/>
  <path class="fil8" d="M93.54 86.79l-27.51 0 0 -26.63c0,-1.57 1.27,-2.84 2.83,-2.84l21.85 0c1.56,0 2.83,1.27 2.83,2.84l0 26.63z"/>
  <path class="fil9" d="M90.64 62l-21.71 0c-0.12,0 -0.22,-0.1 -0.22,-0.22 0,-0.13 0.1,-0.22 0.22,-0.22l21.71 0c0.12,0 0.22,0.09 0.22,0.22 0,0.12 -0.1,0.22 -0.22,0.22z"/>
  <path class="fil10" d="M69.75 61.78l-0.5 0 -0.08 0.91c-0.02,0.19 0.14,0.36 0.33,0.36 0.2,0 0.35,-0.17 0.33,-0.36l-0.08 -0.91zm-0.07 0.45l0 0 -0.35 0 0 -0.32 0.35 0 0 0.32z"/>
  <path class="fil11" d="M69.5 62.1c-0.04,0 -0.07,-0.03 -0.07,-0.07l0 -0.3c0,-0.05 0.03,-0.08 0.07,-0.08 0.04,0 0.08,0.03 0.08,0.08l0 0.3c0,0.04 -0.04,0.07 -0.08,0.07z"/>
  <path class="fil7" d="M92.73 50.19l-25.89 0c-0.76,0 -1.38,-0.61 -1.38,-1.37l0 -4.53c0,-0.76 0.62,-1.38 1.38,-1.38l25.89 0c0.76,0 1.38,0.62 1.38,1.38l0 4.53c0,0.76 -0.62,1.37 -1.38,1.37z"/>
  <path class="fil8" d="M92.68 49.65l-25.79 0c-0.48,0 -0.86,-0.39 -0.86,-0.86l0 -4.47c0,-0.48 0.38,-0.86 0.86,-0.86l25.79 0c0.48,0 0.86,0.38 0.86,0.86l0 4.47c0,0.47 -0.38,0.86 -0.86,0.86z"/>
  <path class="fil9" d="M90.64 46.25l-21.71 0c-0.12,0 -0.22,-0.1 -0.22,-0.22 0,-0.12 0.1,-0.22 0.22,-0.22l21.71 0c0.12,0 0.22,0.1 0.22,0.22 0,0.12 -0.1,0.22 -0.22,0.22z"/>
  <path class="fil10" d="M69.75 46.03l-0.5 0 -0.08 0.91c-0.02,0.19 0.14,0.36 0.33,0.36 0.2,0 0.35,-0.17 0.33,-0.36l-0.08 -0.91zm-0.07 0.45l0 0 -0.35 0 0 -0.32 0.35 0 0 0.32z"/>
  <path class="fil11" d="M69.5 46.36c-0.04,0 -0.07,-0.04 -0.07,-0.08l0 -0.3c0,-0.04 0.03,-0.08 0.07,-0.08 0.04,0 0.08,0.04 0.08,0.08l0 0.3c0,0.04 -0.04,0.08 -0.08,0.08z"/>
  <polygon class="fil3" points="61.63,79.98 60.38,79.98 60.38,77.41 61.63,77.41 "/>
  <polygon class="fil3" points="61.63,47.37 60.38,47.37 60.38,44.81 61.63,44.81 "/>
  <path class="fil3" d="M97.94 58.16l0 1.52c0.33,0 0.6,0.56 0.6,1.26l0 2.91c0,0.69 -0.27,1.26 -0.6,1.26l0 1.51c0.73,0 1.32,-1.24 1.32,-2.77l0 -2.91c0,-1.54 -0.59,-2.78 -1.32,-2.78z"/>
  <path class="fil3" d="M89.81 20.77c0,-2.52 -2.05,-4.58 -4.58,-4.58l-10.8 0c-2.53,0 -4.58,2.06 -4.58,4.58l0 2.27 2.67 0 0 -1.49c0,-1.46 1.18,-2.63 2.63,-2.63l9.36 0c1.45,0 2.63,1.17 2.63,2.63l0 1.49 2.67 0 0 -2.27z"/>
  <polygon class="fil9" points="87.63,23.04 87.63,37.99 89.27,37.99 89.27,23.04 "/>
  <polygon class="fil9" points="70.39,23.04 70.39,37.99 72.03,37.99 72.03,23.04 "/>
  <polygon class="fil11" points="89.27,23.04 87.63,23.04 87.63,24.97 89.27,24.97 "/>
  <polygon class="fil11" points="72.03,23.04 70.39,23.04 70.39,24.97 72.03,24.97 "/>
  <polygon class="fil12" points="40.33,35.1 35.1,39.71 28.23,39.18 23,43.8 29.24,63.3 34.72,59.49 41.34,59.21 46.82,55.4 53.44,55.13 47.2,35.63 "/>
  <polygon class="fil13" points="28.14,40.12 34.08,58.68 29.54,61.83 23.82,43.94 "/>
  <polygon class="fil14" points="35.41,40.69 41.07,58.39 34.08,58.68 28.14,40.12 "/>
  <polygon class="fil13" points="40.94,35.81 46.88,54.36 41.07,58.39 35.41,40.69 "/>
  <polygon class="fil14" points="46.63,36.24 52.35,54.13 46.88,54.36 40.94,35.81 "/>
  <polygon class="fil15" points="25.73,47.29 26.98,45.06 28.99,45.28 30.09,44.61 29.88,43.95 29.04,43.32 29.47,42.07 33.42,41.5 34.36,42.54 33.99,43.1 32.7,42.59 31.42,43.53 30.92,44.27 31.17,44.66 32.47,45.39 32.66,44.19 33.91,44.05 34.2,44.46 34.04,45.37 34.99,45.62 35.68,46.65 34.99,47.42 34.01,47.59 33.22,49.76 31.79,50.37 31.78,51.38 32.61,51.89 33.08,51.13 36.54,51.17 37.56,52.53 36.37,54.17 36.95,56.06 37.81,56.75 37.42,57.23 34.6,56.47 33.77,54 32.42,53.89 32.06,52.77 30.86,51.75 30.43,49.81 28.74,49.24 28.43,46.78 27.62,46.27 26.41,47.5 "/>
  <polygon class="fil15" points="37.22,48.15 36.51,49.27 37.48,51.38 38.84,51.81 40.81,50.79 42.32,53.32 43.66,54.48 44.39,54.24 44.1,50.1 42.55,48.28 43.01,47.42 42,46.76 43.1,44.67 44.89,45.11 45.66,45.53 46.01,46.6 47.11,46.93 47.14,46.32 46.28,46.04 46.32,43.75 44.66,42.41 45.77,40.83 44.69,39.55 44.99,38.37 44.13,37.4 40.61,37.99 39.06,40.09 36.46,41.44 35.8,43.91 37.11,45.27 38.28,46.02 39.23,45.16 39.53,46.1 39.37,47.42 38.19,47.06 "/>
  <path class="fil15" d="M46.51 49.79l-1.14 0.76 -0.27 1.26 0.83 0.61 0.86 -0.74 0.83 0.17 0.48 -0.51 0.77 0.69 0.38 -0.42 -1.1 -1.02c0,0 0.69,-0.86 0.64,-0.94 -0.06,-0.08 -0.98,-0.84 -0.98,-0.84l-0.82 0.28 0.09 0.85 -0.57 -0.15z"/>
  <polygon class="fil16" points="31.79,50.37 31.77,51.38 32.61,51.89 33.08,51.13 36.54,51.17 37.56,52.53 36.37,54.17 36.95,56.06 37.81,56.75 37.42,57.23 34.6,56.47 33.77,54 32.55,53.9 29.66,44.87 30.09,44.61 29.88,43.95 29.2,43.45 29.1,43.13 29.47,42.07 33.42,41.5 34.36,42.54 33.99,43.1 32.7,42.59 31.42,43.53 30.92,44.27 31.17,44.66 32.47,45.39 32.66,44.19 33.91,44.05 34.2,44.46 34.04,45.37 34.99,45.62 35.68,46.65 34.99,47.42 34.01,47.59 33.22,49.75 "/>
  <polygon class="fil16" points="45.77,40.84 44.67,42.41 46.32,43.75 46.28,46.04 47.14,46.32 47.11,46.93 46.01,46.61 45.67,45.53 44.89,45.12 43.84,44.86 41.59,37.83 44.13,37.41 44.99,38.38 44.69,39.56 "/>
  <path class="fil16" d="M48.16 50.6l1.1 1.02 -0.39 0.41 -0.77 -0.69 -0.48 0.52 -0.82 -0.17 -0.61 0.52 -0.58 -1.81 0.9 -0.61 0.57 0.16 -0.08 -0.86 0.81 -0.27c0,0 0.92,0.76 0.98,0.84 0.06,0.07 -0.63,0.94 -0.63,0.94z"/>
  <path class="fil12" d="M28.02 44.36c-0.39,0.19 -0.56,0.65 -0.38,1.03 0.18,0.38 1.38,1.08 1.38,1.08 0,0 0.21,-1.38 0.03,-1.76 -0.18,-0.38 -0.64,-0.54 -1.03,-0.35zm0.57 1.21l0 0c-0.28,0.14 -0.63,0.03 -0.76,-0.25 -0.13,-0.28 -0.01,-0.63 0.28,-0.77 0.29,-0.14 0.63,-0.02 0.76,0.26 0.13,0.28 0.01,0.62 -0.28,0.76z"/>
  <path class="fil12" d="M40.31 42.98c-0.39,0.19 -0.56,0.65 -0.38,1.03 0.18,0.38 1.38,1.08 1.38,1.08 0,0 0.21,-1.39 0.03,-1.77 -0.19,-0.38 -0.65,-0.53 -1.03,-0.34zm0.57 1.2l0 0c-0.29,0.15 -0.63,0.03 -0.76,-0.25 -0.14,-0.28 -0.01,-0.62 0.28,-0.76 0.28,-0.14 0.62,-0.03 0.76,0.25 0.13,0.28 0.01,0.63 -0.28,0.76z"/>
  <path class="fil12" d="M34.19 51.82c-0.39,0.19 -0.56,0.65 -0.38,1.03 0.18,0.38 1.38,1.08 1.38,1.08 0,0 0.21,-1.39 0.03,-1.77 -0.18,-0.38 -0.64,-0.53 -1.03,-0.34zm0.58 1.21l0 0c-0.29,0.14 -0.63,0.02 -0.77,-0.26 -0.13,-0.28 -0.01,-0.62 0.28,-0.76 0.29,-0.14 0.63,-0.02 0.76,0.26 0.14,0.28 0.01,0.62 -0.27,0.76z"/>
  <polygon class="fil17" points="49.53,49.31 47.42,55.19 60.86,60.01 62.98,54.13 "/>
  <polygon class="fil4" points="60.26,58.85 51.93,55.86 52.03,55.58 60.35,58.57 "/>
  <polygon class="fil4" points="60.49,58.2 52.16,55.21 52.26,54.94 60.59,57.93 "/>
  <polygon class="fil4" points="60.72,57.56 52.39,54.57 52.49,54.29 60.82,57.28 "/>
  <polygon class="fil18" points="49.53,49.31 47.42,55.19 51.11,56.51 53.22,50.63 "/>
  <polygon class="fil19" points="48.56,54.75 48.67,54.43 48.54,54.39 48.56,54.34 48.87,54.45 48.85,54.49 48.72,54.45 48.61,54.77 "/>
  <polygon id="1" class="fil19" points="48.8,54.84 48.93,54.47 48.98,54.49 48.85,54.85 "/>
  <path id="2" class="fil19" d="M49.27 54.85l0.04 0.03c-0.02,0.04 -0.05,0.06 -0.09,0.07 -0.03,0.01 -0.07,0.01 -0.11,0 -0.04,-0.02 -0.08,-0.04 -0.1,-0.06 -0.02,-0.03 -0.03,-0.06 -0.03,-0.09 0,-0.04 0,-0.07 0.01,-0.11 0.02,-0.04 0.04,-0.07 0.06,-0.09 0.03,-0.02 0.06,-0.04 0.09,-0.04 0.04,-0.01 0.07,0 0.11,0.01 0.03,0.01 0.06,0.03 0.08,0.06 0.02,0.03 0.03,0.06 0.03,0.1l-0.05 -0.01c0,-0.03 -0.01,-0.05 -0.02,-0.07 -0.02,-0.02 -0.03,-0.03 -0.06,-0.04 -0.03,-0.01 -0.06,-0.01 -0.08,-0.01 -0.03,0.01 -0.05,0.02 -0.07,0.04 -0.01,0.02 -0.02,0.05 -0.03,0.07 -0.01,0.03 -0.02,0.06 -0.02,0.09 0,0.02 0.01,0.05 0.03,0.06 0.01,0.02 0.03,0.04 0.06,0.04 0.03,0.01 0.05,0.01 0.08,0.01 0.03,-0.01 0.05,-0.03 0.07,-0.06z"/>
  <polygon id="3" class="fil19" points="49.33,55.02 49.47,54.65 49.52,54.67 49.45,54.85 49.71,54.73 49.78,54.76 49.56,54.85 49.66,55.13 49.59,55.1 49.52,54.87 49.43,54.91 49.39,55.03 "/>
  <polygon id="4" class="fil19" points="49.7,55.14 49.83,54.77 50.12,54.87 50.1,54.91 49.87,54.83 49.83,54.95 50.04,55.02 50.03,55.06 49.81,54.99 49.77,55.12 50.01,55.2 49.99,55.24 "/>
  <polygon id="5" class="fil19" points="50.16,55.3 50.28,54.97 50.15,54.93 50.17,54.89 50.48,54.99 50.46,55.03 50.33,54.99 50.22,55.31 "/>
  <path id="6" class="fil19" d="M50.42 55.25l0.05 0.01c0,0.02 0,0.04 0,0.06 0.01,0.01 0.02,0.02 0.03,0.04 0.02,0.01 0.04,0.02 0.06,0.03 0.02,0.01 0.04,0.01 0.05,0.01 0.02,0 0.03,-0.01 0.04,-0.01 0.02,-0.01 0.02,-0.02 0.03,-0.03 0,-0.01 0,-0.02 0,-0.03 -0.01,-0.02 -0.02,-0.03 -0.03,-0.04 -0.01,-0.01 -0.03,-0.02 -0.06,-0.04 -0.04,-0.02 -0.06,-0.04 -0.07,-0.05 -0.02,-0.01 -0.03,-0.03 -0.03,-0.05 0,-0.01 0,-0.03 0,-0.05 0.01,-0.02 0.02,-0.03 0.04,-0.04 0.02,-0.02 0.04,-0.02 0.06,-0.02 0.03,0 0.05,0 0.08,0.01 0.03,0.01 0.05,0.02 0.07,0.04 0.02,0.01 0.03,0.03 0.04,0.05 0,0.02 0,0.05 -0.01,0.07l-0.05 -0.02c0.01,-0.02 0.01,-0.04 0,-0.06 -0.02,-0.01 -0.04,-0.03 -0.07,-0.04 -0.03,-0.01 -0.05,-0.01 -0.07,-0.01 -0.02,0.01 -0.03,0.02 -0.04,0.04 0,0.01 0,0.02 0.01,0.03 0,0.02 0.03,0.03 0.07,0.06 0.03,0.02 0.06,0.04 0.07,0.05 0.02,0.02 0.04,0.04 0.04,0.05 0.01,0.02 0.01,0.04 0,0.06 -0.01,0.02 -0.02,0.04 -0.04,0.05 -0.02,0.01 -0.04,0.02 -0.06,0.02 -0.03,0.01 -0.06,0 -0.09,-0.01 -0.03,-0.01 -0.06,-0.02 -0.08,-0.04 -0.02,-0.02 -0.03,-0.04 -0.04,-0.06 -0.01,-0.03 -0.01,-0.05 0,-0.08z"/>
  <path class="fil19" d="M48.6 54.19l0.23 -0.26 0.05 0.02 0.02 0.34 -0.05 -0.01 0 -0.11 -0.14 -0.04 -0.07 0.08 -0.04 -0.02zm0.14 -0.09l0.1 0.04 0 -0.1c0,-0.03 0,-0.05 0,-0.07 -0.01,0.02 -0.02,0.04 -0.04,0.05l-0.06 0.08z"/>
  <polygon id="1" class="fil19" points="48.94,54.31 49.05,54.01 49.09,54.02 48.98,54.32 "/>
  <path id="2" class="fil19" d="M49.06 54.35l0.11 -0.3 0.14 0.04c0.03,0.01 0.05,0.02 0.06,0.03 0.02,0.01 0.03,0.03 0.03,0.04 0,0.02 0,0.04 0,0.05 -0.01,0.03 -0.03,0.04 -0.05,0.05 -0.02,0.01 -0.04,0.01 -0.07,0.01 0.01,0.01 0.01,0.01 0.02,0.02 0,0.02 0.01,0.03 0.02,0.05l0.02 0.1 -0.05 -0.01 -0.02 -0.08c-0.01,-0.02 -0.01,-0.04 -0.02,-0.05 0,-0.02 -0.01,-0.03 -0.01,-0.03 -0.01,-0.01 -0.01,-0.01 -0.02,-0.02 0,0 -0.01,0 -0.02,0l-0.05 -0.02 -0.05 0.13 -0.04 -0.01zm0.1 -0.16l0.09 0.03c0.02,0.01 0.04,0.01 0.05,0.01 0.01,0 0.02,0 0.03,-0.01 0.01,0 0.02,-0.01 0.02,-0.02 0.01,-0.01 0.01,-0.03 0,-0.04 -0.01,-0.01 -0.03,-0.02 -0.05,-0.03l-0.1 -0.04 -0.04 0.1z"/>
  <path id="3" class="fil19" d="M49.38 54.46l0.11 -0.31 0.12 0.05c0.03,0 0.04,0.01 0.05,0.02 0.02,0 0.03,0.01 0.04,0.02 0.01,0.01 0.01,0.03 0.01,0.04 0,0.02 0,0.03 0,0.05 -0.01,0.02 -0.03,0.04 -0.05,0.05 -0.03,0.01 -0.06,0.01 -0.11,0l-0.08 -0.03 -0.04 0.12 -0.05 -0.01zm0.1 -0.15l0.09 0.03c0.02,0.01 0.05,0.01 0.06,0.01 0.02,-0.01 0.03,-0.02 0.03,-0.04 0.01,-0.01 0.01,-0.02 0,-0.03 0,-0.02 -0.01,-0.02 -0.02,-0.03 0,-0.01 -0.02,-0.01 -0.04,-0.02l-0.08 -0.03 -0.04 0.11z"/>
  <polygon id="4" class="fil19" points="49.68,54.56 49.79,54.26 49.83,54.27 49.74,54.54 49.9,54.59 49.88,54.63 "/>
  <path id="5" class="fil19" d="M49.9 54.63l0.23 -0.26 0.05 0.02 0.02 0.34 -0.05 -0.01 0 -0.11 -0.14 -0.04 -0.07 0.08 -0.04 -0.02zm0.14 -0.09l0.11 0.04 -0.01 -0.1c0,-0.03 0,-0.05 0,-0.07 -0.01,0.02 -0.02,0.04 -0.04,0.05l-0.06 0.08z"/>
  <polygon id="6" class="fil19" points="50.23,54.75 50.34,54.44 50.39,54.46 50.47,54.75 50.56,54.51 50.6,54.53 50.49,54.83 50.44,54.82 50.36,54.52 50.28,54.76 "/>
  <polygon id="7" class="fil19" points="50.56,54.86 50.67,54.55 50.9,54.63 50.89,54.67 50.7,54.6 50.67,54.7 50.84,54.76 50.83,54.79 50.65,54.73 50.62,54.83 50.81,54.9 50.8,54.94 "/>
  <path class="fil20" d="M51.37 53.2l0.16 -0.16 -0.13 -0.27 0.08 -0.07c0.02,-0.03 0.02,-0.06 0,-0.09 -0.03,-0.02 -0.06,-0.02 -0.08,0.01l-0.05 0.04 -0.12 -0.24 0.07 -0.07c0.02,-0.03 0.02,-0.06 0,-0.09 -0.03,-0.02 -0.06,-0.02 -0.08,0.01l-0.04 0.04 -0.16 -0.32c0.06,-0.05 0.11,-0.11 0.16,-0.16 0.49,-0.51 0.36,-0.67 0.36,-0.67 0,0 -0.16,-0.13 -0.66,0.39 -0.05,0.05 -0.1,0.1 -0.15,0.16l-0.32 -0.15 0.04 -0.04c0.02,-0.02 0.02,-0.06 0,-0.08 -0.03,-0.02 -0.06,-0.02 -0.08,0l-0.07 0.07 -0.25 -0.11 0.04 -0.05c0.02,-0.02 0.02,-0.05 0,-0.08 -0.02,-0.02 -0.06,-0.02 -0.08,0l-0.07 0.08 -0.27 -0.12 -0.16 0.17 0.87 0.7c-0.21,0.25 -0.41,0.5 -0.53,0.68l-0.34 -0.07 -0.13 0.13 0.37 0.18 0.18 0.36 0.13 -0.14 -0.08 -0.33c0.17,-0.13 0.42,-0.34 0.66,-0.56l0.73 0.85z"/>
  <polygon class="fil4" points="55,54.75 52.63,53.9 53.48,51.53 55.85,52.38 "/>
  <polygon class="fil1" points="59.31,53.63 59.26,53.77 61.76,54.66 61.81,54.52 "/>
  <polygon class="fil1" points="59.21,53.91 59.16,54.05 61.65,54.95 61.71,54.81 "/>
  <polygon class="fil1" points="59.11,54.2 59.06,54.34 61.55,55.23 61.6,55.09 "/>
  <polygon class="fil1" points="59.01,54.48 58.95,54.62 61.45,55.52 61.5,55.38 "/>
  <polygon class="fil1" points="58.9,54.77 58.85,54.91 61.35,55.8 61.4,55.66 "/>
  <path class="fil21" d="M64.63 56.1l-7.04 0.73 -1.15 -10.99 7.04 -0.74c0.37,-0.04 0.69,0.23 0.73,0.6l1.01 9.66c0.04,0.37 -0.22,0.7 -0.59,0.74z"/>
  <path class="fil22" d="M64.42 56.12l-7.04 0.74 -1.15 -11 7.04 -0.74c0.37,-0.04 0.69,0.23 0.73,0.6l1.01 9.66c0.04,0.37 -0.23,0.7 -0.59,0.74z"/>
  <path class="fil23" d="M56.98 46.26l6.21 -0.65c0.22,-0.03 0.43,0.14 0.45,0.36l0.97 9.26 -7.63 -8.97z"/>
  <path class="fil20" d="M62.05 47.98c-0.05,-0.04 -0.1,-0.08 -0.15,-0.11 -0.44,-0.32 -1,-0.48 -1.57,-0.43 -0.02,0 -0.03,0 -0.04,0 -0.01,0 -0.03,0 -0.04,0.01 -0.58,0.07 -1.08,0.34 -1.45,0.74 -0.05,0.05 -0.09,0.1 -0.13,0.15 -0.36,0.46 -0.55,1.06 -0.48,1.69 0.06,0.63 0.37,1.18 0.82,1.56 0.05,0.04 0.1,0.08 0.16,0.11 0.44,0.32 0.99,0.48 1.57,0.43 0.01,0 0.03,0 0.04,0 0.01,0 0.02,0 0.04,-0.01 0.57,-0.06 1.08,-0.34 1.45,-0.74 0.04,-0.05 0.08,-0.1 0.12,-0.15 0.36,-0.46 0.55,-1.06 0.49,-1.69 -0.07,-0.63 -0.38,-1.18 -0.83,-1.56zm0.62 1.49l0 0c0,0 0,0 0,0l-0.95 0.09c-0.05,-0.41 -0.15,-0.78 -0.28,-1.09 0.17,-0.1 0.33,-0.22 0.48,-0.35 0.39,0.33 0.67,0.8 0.75,1.35zm-3.11 -0.74l0 0c0.25,0.06 0.51,0.08 0.77,0.06l0.1 0.91 -0.91 0.1c0,0 0,-0.01 0,-0.01 -0.03,-0.38 -0.02,-0.74 0.04,-1.06zm0.84 -1.1l0 0 0 0c0.29,0.03 0.57,0.32 0.78,0.75 -0.21,0.09 -0.43,0.16 -0.68,0.2l0 0 -0.1 -0.95zm-0.19 0.02l0 0 0.1 0.95c-0.24,0.01 -0.48,-0.01 -0.7,-0.06 0.12,-0.46 0.33,-0.8 0.6,-0.89zm0.24 2.24l0 0 0.09 0.91c-0.26,0.04 -0.51,0.11 -0.74,0.22 -0.12,-0.3 -0.22,-0.65 -0.26,-1.03l0.91 -0.1zm0.11 1.11l0 0 0.1 0.94c-0.28,-0.03 -0.56,-0.32 -0.78,-0.75 0.21,-0.09 0.44,-0.16 0.68,-0.19zm0.29 0.92l0 0c0,0 0,0 0,0l-0.1 -0.94 0 0c0.25,-0.02 0.48,0 0.71,0.05 -0.12,0.46 -0.34,0.8 -0.61,0.89zm-0.12 -1.14l0 0 0 0 -0.09 -0.91 0.91 -0.09c0.03,0.38 0.01,0.74 -0.05,1.06 -0.24,-0.05 -0.5,-0.08 -0.77,-0.06zm-0.11 -1.1l0 0 -0.1 -0.91 0 0c0.27,-0.04 0.51,-0.11 0.74,-0.22 0.13,0.3 0.22,0.66 0.27,1.03l0 0.01 -0.91 0.09zm1.14 -1.68l0 0c-0.12,0.11 -0.26,0.21 -0.4,0.29 -0.14,-0.27 -0.3,-0.49 -0.48,-0.64 0.32,0.05 0.62,0.17 0.88,0.35zm-2.01 -0.23l0 0c-0.14,0.18 -0.26,0.43 -0.33,0.72 -0.16,-0.05 -0.32,-0.11 -0.46,-0.19 0.22,-0.23 0.49,-0.42 0.79,-0.53zm-0.91 0.67l0 0c0.16,0.1 0.34,0.18 0.53,0.24 -0.06,0.34 -0.08,0.72 -0.04,1.13l0 0 -0.96 0.1c0,0 0,0 0,0 -0.03,-0.54 0.15,-1.06 0.47,-1.47zm-0.45 1.67l0 0 0.96 -0.1c0.05,0.41 0.15,0.78 0.28,1.09 -0.18,0.1 -0.34,0.22 -0.48,0.35 -0.4,-0.33 -0.68,-0.8 -0.76,-1.34zm0.92 1.46l0 0c0.12,-0.11 0.25,-0.21 0.4,-0.29 0.13,0.28 0.3,0.5 0.48,0.64 -0.32,-0.05 -0.62,-0.17 -0.88,-0.35zm2 0.23l0 0c0.15,-0.18 0.26,-0.43 0.34,-0.72 0.16,0.05 0.31,0.11 0.45,0.19 -0.22,0.24 -0.48,0.42 -0.79,0.53zm0.92 -0.67l0 0c-0.17,-0.1 -0.35,-0.18 -0.54,-0.24 0.07,-0.34 0.09,-0.72 0.05,-1.13l0.95 -0.1c0.04,0.55 -0.14,1.06 -0.46,1.47z"/>
  <path class="fil24" d="M58.27 54.27l-0.07 -0.71 0.27 -0.03c0.04,0 0.08,0 0.11,0 0.03,0 0.06,0.01 0.09,0.02 0.02,0.02 0.04,0.04 0.06,0.06 0.02,0.03 0.03,0.06 0.03,0.1 0.01,0.06 0,0.11 -0.04,0.16 -0.03,0.04 -0.1,0.07 -0.2,0.08l-0.18 0.02 0.03 0.29 -0.1 0.01zm0.06 -0.38l0.18 -0.02c0.06,-0.01 0.11,-0.02 0.13,-0.05 0.02,-0.02 0.03,-0.06 0.03,-0.1 -0.01,-0.03 -0.02,-0.05 -0.03,-0.07 -0.02,-0.02 -0.04,-0.03 -0.07,-0.04 -0.01,0 -0.04,0 -0.09,0.01l-0.18 0.01 0.03 0.26z"/>
  <path id="1" class="fil24" d="M58.78 54.22l0.2 -0.74 0.11 -0.01 0.36 0.68 -0.11 0.01 -0.1 -0.21 -0.3 0.03 -0.06 0.23 -0.1 0.01zm0.18 -0.32l0.24 -0.02 -0.09 -0.19c-0.03,-0.06 -0.05,-0.1 -0.07,-0.14 0,0.05 -0.01,0.09 -0.03,0.14l-0.05 0.21z"/>
  <path id="2" class="fil24" d="M59.47 53.91l0.09 -0.01c0.01,0.03 0.02,0.06 0.04,0.08 0.01,0.02 0.04,0.04 0.07,0.05 0.04,0.01 0.08,0.01 0.12,0.01 0.03,0 0.06,-0.01 0.09,-0.03 0.03,-0.01 0.04,-0.03 0.06,-0.05 0.01,-0.02 0.01,-0.04 0.01,-0.06 0,-0.02 -0.01,-0.04 -0.03,-0.05 -0.01,-0.02 -0.03,-0.03 -0.06,-0.04 -0.02,-0.01 -0.07,-0.01 -0.13,-0.02 -0.07,-0.01 -0.12,-0.02 -0.15,-0.03 -0.03,-0.02 -0.06,-0.03 -0.08,-0.06 -0.02,-0.02 -0.03,-0.05 -0.03,-0.08 -0.01,-0.04 0,-0.08 0.02,-0.11 0.01,-0.03 0.04,-0.06 0.08,-0.08 0.04,-0.02 0.08,-0.03 0.13,-0.04 0.05,0 0.1,0 0.14,0.01 0.04,0.02 0.07,0.04 0.1,0.07 0.02,0.03 0.04,0.07 0.05,0.11l-0.09 0.01c-0.01,-0.04 -0.03,-0.07 -0.06,-0.09 -0.03,-0.02 -0.08,-0.03 -0.13,-0.02 -0.06,0 -0.1,0.02 -0.12,0.04 -0.03,0.02 -0.04,0.05 -0.03,0.08 0,0.02 0.01,0.04 0.03,0.06 0.02,0.01 0.07,0.03 0.15,0.04 0.08,0 0.13,0.01 0.16,0.02 0.04,0.02 0.08,0.04 0.1,0.07 0.02,0.02 0.04,0.06 0.04,0.09 0,0.04 0,0.08 -0.02,0.11 -0.02,0.04 -0.05,0.07 -0.09,0.09 -0.04,0.02 -0.08,0.04 -0.13,0.04 -0.07,0.01 -0.12,0.01 -0.17,-0.01 -0.04,-0.01 -0.08,-0.04 -0.11,-0.07 -0.03,-0.04 -0.04,-0.08 -0.05,-0.13z"/>
  <path id="3" class="fil24" d="M60.13 53.85l0.09 -0.02c0.01,0.03 0.02,0.06 0.04,0.08 0.02,0.02 0.04,0.04 0.08,0.05 0.03,0.01 0.07,0.02 0.11,0.01 0.03,0 0.07,-0.01 0.09,-0.02 0.03,-0.02 0.05,-0.04 0.06,-0.05 0.01,-0.03 0.02,-0.05 0.01,-0.07 0,-0.02 -0.01,-0.04 -0.02,-0.05 -0.02,-0.02 -0.04,-0.03 -0.07,-0.04 -0.02,0 -0.06,-0.01 -0.13,-0.02 -0.07,-0.01 -0.12,-0.02 -0.14,-0.03 -0.04,-0.01 -0.07,-0.03 -0.09,-0.06 -0.02,-0.02 -0.03,-0.05 -0.03,-0.08 0,-0.04 0,-0.07 0.02,-0.11 0.02,-0.03 0.04,-0.06 0.08,-0.08 0.04,-0.02 0.08,-0.03 0.13,-0.04 0.05,0 0.1,0 0.14,0.02 0.04,0.01 0.08,0.03 0.1,0.06 0.03,0.03 0.04,0.07 0.05,0.11l-0.09 0.01c-0.01,-0.04 -0.03,-0.07 -0.06,-0.09 -0.03,-0.02 -0.07,-0.03 -0.13,-0.02 -0.05,0 -0.1,0.02 -0.12,0.04 -0.02,0.03 -0.03,0.05 -0.03,0.08 0,0.03 0.01,0.05 0.03,0.06 0.02,0.02 0.07,0.03 0.15,0.04 0.08,0.01 0.13,0.02 0.16,0.03 0.05,0.01 0.08,0.03 0.1,0.06 0.03,0.02 0.04,0.06 0.04,0.09 0.01,0.04 0,0.08 -0.02,0.11 -0.02,0.04 -0.05,0.07 -0.08,0.09 -0.04,0.02 -0.09,0.04 -0.14,0.04 -0.06,0.01 -0.12,0.01 -0.16,-0.01 -0.05,-0.01 -0.09,-0.04 -0.11,-0.07 -0.03,-0.04 -0.05,-0.08 -0.06,-0.12z"/>
  <path id="4" class="fil24" d="M60.85 54l-0.07 -0.71 0.27 -0.02c0.04,-0.01 0.08,-0.01 0.11,-0.01 0.03,0 0.06,0.01 0.09,0.02 0.02,0.02 0.04,0.04 0.06,0.07 0.02,0.02 0.03,0.06 0.03,0.09 0.01,0.06 0,0.11 -0.04,0.16 -0.03,0.05 -0.1,0.07 -0.2,0.08l-0.18 0.02 0.03 0.29 -0.1 0.01zm0.06 -0.38l0.18 -0.02c0.06,-0.01 0.1,-0.02 0.13,-0.05 0.02,-0.02 0.03,-0.06 0.03,-0.1 -0.01,-0.03 -0.02,-0.05 -0.03,-0.07 -0.02,-0.02 -0.04,-0.03 -0.07,-0.04 -0.01,0 -0.04,0 -0.09,0.01l-0.18 0.02 0.03 0.25z"/>
  <path id="5" class="fil24" d="M61.45 53.59c-0.01,-0.12 0.01,-0.21 0.07,-0.28 0.05,-0.08 0.13,-0.12 0.23,-0.13 0.07,-0.01 0.13,0 0.18,0.03 0.06,0.02 0.11,0.06 0.14,0.12 0.03,0.05 0.05,0.11 0.06,0.18 0.01,0.07 0,0.14 -0.02,0.2 -0.03,0.06 -0.06,0.11 -0.11,0.14 -0.05,0.03 -0.11,0.06 -0.17,0.06 -0.07,0.01 -0.13,0 -0.19,-0.03 -0.05,-0.02 -0.1,-0.06 -0.13,-0.12 -0.03,-0.05 -0.05,-0.11 -0.06,-0.17zm0.1 -0.01c0.01,0.09 0.04,0.15 0.09,0.2 0.05,0.04 0.11,0.06 0.18,0.05 0.07,-0.01 0.13,-0.04 0.17,-0.09 0.04,-0.05 0.05,-0.13 0.04,-0.22 0,-0.06 -0.02,-0.11 -0.04,-0.15 -0.03,-0.04 -0.06,-0.07 -0.1,-0.09 -0.04,-0.02 -0.08,-0.02 -0.13,-0.02 -0.07,0.01 -0.12,0.04 -0.16,0.09 -0.05,0.05 -0.06,0.13 -0.05,0.23z"/>
  <path id="6" class="fil24" d="M62.29 53.85l-0.07 -0.71 0.31 -0.03c0.07,-0.01 0.11,0 0.15,0 0.03,0.01 0.06,0.03 0.08,0.06 0.03,0.03 0.04,0.07 0.05,0.11 0,0.05 -0.01,0.09 -0.04,0.13 -0.03,0.04 -0.08,0.06 -0.14,0.08 0.02,0.01 0.04,0.02 0.06,0.03 0.03,0.02 0.06,0.05 0.08,0.09l0.15 0.18 -0.12 0.01 -0.11 -0.14c-0.03,-0.04 -0.06,-0.07 -0.08,-0.09 -0.02,-0.02 -0.04,-0.03 -0.05,-0.04 -0.02,-0.01 -0.03,-0.01 -0.05,-0.02 -0.01,0 -0.02,0 -0.05,0.01l-0.11 0.01 0.03 0.31 -0.09 0.01zm0.05 -0.4l0.21 -0.02c0.04,-0.01 0.07,-0.02 0.09,-0.03 0.03,-0.01 0.05,-0.03 0.06,-0.05 0.01,-0.02 0.01,-0.04 0.01,-0.06 -0.01,-0.04 -0.02,-0.06 -0.05,-0.08 -0.02,-0.02 -0.06,-0.03 -0.12,-0.02l-0.22 0.02 0.02 0.24z"/>
  <polygon id="7" class="fil24" points="63.17,53.76 63.1,53.14 62.87,53.16 62.86,53.08 63.42,53.02 63.43,53.1 63.2,53.13 63.26,53.75 "/>
  <polygon class="fil25" points="49.74,55.88 49.77,56.3 38.35,56.3 38.33,55.41 "/>
  <path class="fil26" d="M23.2 57.67l0 28.1c0,0.75 0.61,1.36 1.36,1.36l38.86 0c0.76,0 1.37,-0.61 1.37,-1.36l0 -28.1c0,-0.75 -0.61,-1.37 -1.37,-1.37l-38.86 0c-0.75,0 -1.36,0.62 -1.36,1.37z"/>
  <path class="fil27" d="M61.77 68.19c-3.79,4.01 -8.14,7.35 -13.6,8.69 -0.89,0.22 -1.78,0.45 -2.78,0.45 -5.24,0 -10.71,0.11 -15.5,-1.79 -2.42,-0.94 -5.01,-2.7 -6.69,-5.09l0 15.32c0,0.75 0.61,1.36 1.36,1.36l38.86 0c0.76,0 1.37,-0.61 1.37,-1.36l0 -20.99c-0.93,1.21 -2.05,2.33 -3.02,3.41z"/>
  <path class="fil28" d="M60.22 56.3c0,2.53 2.04,4.57 4.57,4.57l0 -3.2c0,-0.75 -0.61,-1.37 -1.37,-1.37l-3.2 0z"/>
  <path class="fil28" d="M23.2 57.67l0 3.2c2.52,0 4.57,-2.04 4.57,-4.57l-3.21 0c-0.75,0 -1.36,0.62 -1.36,1.37z"/>
  <path class="fil28" d="M60.22 87.13l3.2 0c0.76,0 1.37,-0.61 1.37,-1.36l0 -3.21c-2.53,0 -4.57,2.05 -4.57,4.57z"/>
  <path class="fil28" d="M23.2 82.56l0 3.21c0,0.75 0.61,1.36 1.36,1.36l3.21 0c0,-2.52 -2.05,-4.57 -4.57,-4.57z"/>
  <path class="fil29" d="M24.29 58.03c0,0.31 0.25,0.56 0.56,0.56 0.31,0 0.56,-0.25 0.56,-0.56 0,-0.31 -0.25,-0.56 -0.56,-0.56 -0.31,0 -0.56,0.25 -0.56,0.56z"/>
  <path class="fil29" d="M24.29 85.41c0,0.31 0.25,0.56 0.56,0.56 0.31,0 0.56,-0.25 0.56,-0.56 0,-0.31 -0.25,-0.56 -0.56,-0.56 -0.31,0 -0.56,0.25 -0.56,0.56z"/>
  <path class="fil29" d="M62.57 58.03c0,0.31 0.25,0.56 0.56,0.56 0.31,0 0.56,-0.25 0.56,-0.56 0,-0.31 -0.25,-0.56 -0.56,-0.56 -0.31,0 -0.56,0.25 -0.56,0.56z"/>
  <path class="fil29" d="M62.57 85.41c0,0.31 0.25,0.56 0.56,0.56 0.31,0 0.56,-0.25 0.56,-0.56 0,-0.31 -0.25,-0.56 -0.56,-0.56 -0.31,0 -0.56,0.25 -0.56,0.56z"/>
  <path class="fil30" d="M38.22 56.3l2.07 0c0,-0.94 0.77,-1.71 1.72,-1.71l3.97 0c0.95,0 1.72,0.77 1.72,1.71l2.07 0c0,-2.09 -1.7,-3.78 -3.79,-3.78l-3.97 0c-2.09,0 -3.79,1.69 -3.79,3.78z"/>
  <polygon class="fil3" points="31.7,87.99 27.77,87.99 27.77,87.13 31.7,87.13 "/>
  <polygon class="fil3" points="60.22,87.99 56.29,87.99 56.29,87.13 60.22,87.13 "/>
  <path class="fil12" d="M37.26 82.14l2.68 0.58c0.16,0.03 0.31,-0.07 0.35,-0.23l0.57 -2.68c0.04,-0.16 -0.06,-0.31 -0.22,-0.35l-2.68 -0.57c-0.16,-0.04 -0.32,0.06 -0.35,0.22l-0.58 2.68c-0.03,0.16 0.07,0.32 0.23,0.35z"/>
  <polygon class="fil17" points="37.98,80.25 38.69,80.4 38.84,79.7 39.5,79.84 39.35,80.55 40.05,80.7 39.91,81.35 39.21,81.2 39.05,81.91 38.4,81.77 38.55,81.06 37.84,80.91 "/>
  <path class="fil17" d="M46.67 78.42c-0.53,1.93 0.61,3.92 2.55,4.45 1.93,0.53 3.92,-0.61 4.45,-2.54 0.52,-1.94 -0.62,-3.93 -2.55,-4.46 -1.93,-0.52 -3.92,0.62 -4.45,2.55z"/>
  <polygon class="fil12" points="47.55,78.58 47.91,78.54 47.96,77.49 48.66,77.91 48.97,77.49 49.52,78.49 49.72,76.79 50.14,77.21 50.99,76.37 51.3,77.53 51.88,77.38 51.18,78.95 52.16,78.36 52.21,78.88 53.03,78.89 52.53,79.81 52.83,80.03 51.19,80.82 51.19,81.35 49.99,80.87 49.81,80.82 49.51,82.42 49.18,82.33 49.7,80.79 49.56,80.75 48.28,80.55 48.55,80.1 "/>
  <path class="fil3" d="M58.52 75.36c1.16,-0.94 1.18,-1.96 1.18,-1.96l0.17 -0.03 0.18 1.7c0.13,1.93 -0.76,2.71 -1.11,2.94l-0.42 -2.65z"/>
  <path class="fil3" d="M60.96 79.73l-1.67 0.27 -0.31 -1.95c0.38,-0.24 1.27,-1.03 1.14,-2.99l-0.18 -1.68 0.42 -0.01 0.03 0 0.17 -0.01 0 0 1.07 -0.04c0,0 0.23,-0.21 0.4,-0.19 0,0 0.1,0 0.11,0.07l0.28 -0.04c0,0 0.1,-0.02 0.01,0.09 -0.09,0.1 -0.3,0.24 -0.82,0.33 0,0 -0.07,0.17 -0.24,0.38 0,0 0,0 0,0 -0.01,0.02 -0.03,0.04 -0.04,0.06 -0.01,0 -0.01,0.01 -0.01,0.01 -0.23,0.26 -0.6,0.55 -1.15,0.62l0.79 5.08z"/>
  <path class="fil3" d="M55.9 74.27c0.12,0.07 0.36,0.14 0.87,0.07 0.01,0 0.01,0 0.02,0 0,0 0.66,0.77 1.7,0.57l0.05 0.33c0.12,-0.11 0.23,-0.21 0.33,-0.32 0.7,-0.75 0.75,-1.46 0.75,-1.53l-0.06 0 -0.11 -0.69 -0.02 -0.07c-0.02,-0.18 -0.15,-0.32 -0.32,-0.36 -0.05,-0.02 -0.12,-0.02 -0.18,-0.01 -0.24,0.04 -0.4,0.26 -0.36,0.5l0.01 0.08 0.11 0.69 -2 0.57c0,0 -0.28,-0.14 -0.44,-0.06 0,0 -0.09,0.03 -0.08,0.1l-0.28 0.05c0,0 -0.11,0.01 0.01,0.08z"/>
  <path class="fil17" d="M33.99 62.41c-0.32,1.17 0.37,2.38 1.54,2.7 1.17,0.32 2.38,-0.38 2.7,-1.55 0.32,-1.17 -0.37,-2.38 -1.54,-2.7 -1.18,-0.32 -2.38,0.37 -2.7,1.55z"/>
  <path class="fil12" d="M35.07 62.7c-0.16,0.57 0.18,1.17 0.76,1.32 0.57,0.16 1.16,-0.18 1.32,-0.75 0.16,-0.58 -0.18,-1.17 -0.76,-1.33 -0.57,-0.15 -1.16,0.19 -1.32,0.76z"/>
  <polygon class="fil17" points="59.19,65.66 55.58,63.92 57.32,60.31 60.93,62.05 "/>
  <polygon class="fil12" points="56.81,64.51 55.58,63.92 57.32,60.31 58.55,60.9 "/>
  <polygon class="fil18" points="59.18,65.66 57.97,65.08 59.71,61.47 60.92,62.06 "/>
  <path class="fil17" d="M30.21 76.86c0.32,0.23 0.59,0.45 0.8,0.62l0.46 -0.23 0.63 0.39 -0.69 0.56 -0.2 0.85 -0.62 -0.39 0 -0.52c-0.24,-0.11 -0.55,-0.26 -0.9,-0.45l-0.81 1.59 -0.65 -0.41 0.1 -0.45 -0.01 0c-0.02,-0.02 -0.05,-0.04 -0.07,-0.06 -0.09,-0.11 -0.1,-0.26 -0.02,-0.38 0.04,-0.07 0.11,-0.12 0.19,-0.13 0.01,-0.01 0.03,-0.01 0.04,-0.01l0.01 -0.03c-0.03,-0.01 -0.05,-0.03 -0.07,-0.06 -0.09,-0.1 -0.11,-0.25 -0.03,-0.37 0.04,-0.07 0.11,-0.12 0.19,-0.14 0.01,0 0.02,0 0.03,0l0.04 -0.16c-0.06,-0.03 -0.12,-0.07 -0.17,-0.1 -0.31,-0.2 -0.55,-0.38 -0.7,-0.56 -0.29,-0.34 -0.22,-0.56 -0.19,-0.62l0.01 -0.02 0.02 -0.02c0.1,-0.12 0.44,-0.34 1.45,0.3 0.05,0.03 0.1,0.06 0.16,0.1l0.12 -0.1c-0.03,-0.08 -0.01,-0.18 0.04,-0.26 0.04,-0.07 0.11,-0.12 0.19,-0.14 0.08,-0.02 0.17,0 0.24,0.04l0.02 -0.02c-0.03,-0.08 -0.02,-0.18 0.03,-0.27 0.04,-0.07 0.11,-0.12 0.19,-0.14 0.09,-0.02 0.17,0 0.24,0.04l0.01 0.01 0.37 -0.29 0.64 0.41 -1.09 1.42z"/>
  <path class="fil31" d="M30.98 75.5l-0.31 -0.19 -0.37 0.28 -0.14 -0.09c-0.04,-0.02 -0.1,-0.01 -0.12,0.03 -0.03,0.04 -0.02,0.1 0.03,0.12l0.08 0.06 -0.34 0.26 -0.13 -0.08c-0.04,-0.02 -0.1,-0.01 -0.13,0.03 -0.02,0.04 -0.01,0.1 0.03,0.12l0.08 0.05 -0.44 0.34c-0.1,-0.06 -0.2,-0.13 -0.29,-0.19 -0.95,-0.6 -1.16,-0.34 -1.16,-0.34 0,0 -0.14,0.29 0.81,0.89 0.09,0.06 0.19,0.12 0.3,0.19l-0.12 0.54 -0.08 -0.05c-0.04,-0.02 -0.1,-0.01 -0.12,0.03 -0.03,0.04 -0.02,0.1 0.03,0.12l0.13 0.09 -0.1 0.42 -0.08 -0.06c-0.04,-0.02 -0.1,-0.01 -0.13,0.03 -0.02,0.05 -0.01,0.1 0.03,0.13l0.14 0.09 -0.1 0.45 0.31 0.19 0.8 -1.58c0.46,0.26 0.92,0.49 1.23,0.61l-0.01 0.55 0.25 0.16 0.15 -0.63 0.5 -0.4 -0.25 -0.16 -0.49 0.24c-0.25,-0.23 -0.65,-0.54 -1.07,-0.85l1.08 -1.4z"/>
  <polygon class="fil30" points="31.7,56.3 35,56.3 35,87.13 31.7,87.13 "/>
  <path class="fil28" d="M35.6 56.3l-4.5 0 0 1.69c0,1.24 1.01,2.25 2.25,2.25 1.24,0 2.25,-1.01 2.25,-2.25l0 -1.69z"/>
  <path class="fil9" d="M32.79 58.27c0,0.31 0.25,0.56 0.56,0.56 0.31,0 0.56,-0.25 0.56,-0.56 0,-0.31 -0.25,-0.56 -0.56,-0.56 -0.31,0 -0.56,0.25 -0.56,0.56z"/>
  <path class="fil28" d="M31.1 87.13l4.5 0 0 -1.69c0,-1.24 -1.01,-2.24 -2.25,-2.24 -1.24,0 -2.25,1 -2.25,2.24l0 1.69z"/>
  <path class="fil9" d="M33.91 85.16c0,-0.31 -0.25,-0.56 -0.56,-0.56 -0.31,0 -0.56,0.25 -0.56,0.56 0,0.31 0.25,0.56 0.56,0.56 0.31,0 0.56,-0.25 0.56,-0.56z"/>
  <path class="fil9" d="M33.91 78.22c0,-0.31 -0.25,-0.56 -0.56,-0.56 -0.31,0 -0.56,0.25 -0.56,0.56 0,0.31 0.25,0.56 0.56,0.56 0.31,0 0.56,-0.25 0.56,-0.56z"/>
  <path class="fil9" d="M33.91 71.72c0,-0.31 -0.25,-0.56 -0.56,-0.56 -0.31,0 -0.56,0.25 -0.56,0.56 0,0.31 0.25,0.56 0.56,0.56 0.31,0 0.56,-0.25 0.56,-0.56z"/>
  <path class="fil9" d="M33.91 65.22c0,-0.31 -0.25,-0.56 -0.56,-0.56 -0.31,0 -0.56,0.25 -0.56,0.56 0,0.31 0.25,0.56 0.56,0.56 0.31,0 0.56,-0.25 0.56,-0.56z"/>
  <polygon class="fil30" points="52.99,56.3 56.29,56.3 56.29,87.13 52.99,87.13 "/>
  <path class="fil28" d="M56.89 56.3l-4.5 0 0 1.69c0,1.24 1.01,2.25 2.25,2.25 1.24,0 2.25,-1.01 2.25,-2.25l0 -1.69z"/>
  <path class="fil9" d="M54.08 58.27c0,0.31 0.25,0.56 0.56,0.56 0.31,0 0.56,-0.25 0.56,-0.56 0,-0.31 -0.25,-0.56 -0.56,-0.56 -0.31,0 -0.56,0.25 -0.56,0.56z"/>
  <path class="fil28" d="M52.39 87.13l4.5 0 0 -1.69c0,-1.24 -1.01,-2.24 -2.25,-2.24 -1.24,0 -2.25,1 -2.25,2.24l0 1.69z"/>
  <path class="fil9" d="M55.2 85.16c0,-0.31 -0.25,-0.56 -0.56,-0.56 -0.31,0 -0.56,0.25 -0.56,0.56 0,0.31 0.25,0.56 0.56,0.56 0.31,0 0.56,-0.25 0.56,-0.56z"/>
  <path class="fil9" d="M55.2 78.22c0,-0.31 -0.25,-0.56 -0.56,-0.56 -0.31,0 -0.56,0.25 -0.56,0.56 0,0.31 0.25,0.56 0.56,0.56 0.31,0 0.56,-0.25 0.56,-0.56z"/>
  <path class="fil9" d="M55.2 71.72c0,-0.31 -0.25,-0.56 -0.56,-0.56 -0.31,0 -0.56,0.25 -0.56,0.56 0,0.31 0.25,0.56 0.56,0.56 0.31,0 0.56,-0.25 0.56,-0.56z"/>
  <path class="fil9" d="M55.2 65.22c0,-0.31 -0.25,-0.56 -0.56,-0.56 -0.31,0 -0.56,0.25 -0.56,0.56 0,0.31 0.25,0.56 0.56,0.56 0.31,0 0.56,-0.25 0.56,-0.56z"/>
  <polygon class="fil3" points="27.48,64.36 28.2,65.2 29.3,65.08 28.73,66.03 29.18,67.04 28.1,66.78 27.28,67.52 27.19,66.42 26.23,65.87 27.25,65.44 "/>
  <polygon class="fil3" points="49.73,68.5 48.82,68.59 48.54,67.41 49.75,67.28 "/>
  <path class="fil32" d="M50 67.45l-1.67 0.18c-0.14,0.02 -0.26,-0.08 -0.28,-0.22l-0.18 -1.67c-0.01,-0.14 0.09,-0.27 0.23,-0.28l1.67 -0.18c0.14,-0.02 0.26,0.08 0.28,0.22l0.18 1.67c0.01,0.14 -0.09,0.27 -0.23,0.28z"/>
  <polygon class="fil33" points="49.94,67.17 48.33,67.35 48.16,65.74 49.76,65.57 "/>
  <polygon class="fil3" points="49.82,67.08 48.42,67.23 48.27,65.83 49.67,65.68 "/>
  <polygon class="fil25" points="49.59,66.89 48.62,66.99 48.51,66.02 49.48,65.92 "/>
  <path class="fil34" d="M49.26 65.94l-0.75 0.08 0.11 0.97 0.14 -0.01c0.09,-0.38 0.26,-0.74 0.5,-1.04z"/>
  <path class="fil23" d="M42.08 69.14c-0.2,0.02 -0.34,0.19 -0.37,0.4 0,0.02 0,0.03 0,0.05l0.49 4.52c0.03,0.23 0.24,0.4 0.48,0.38l8.55 -0.93c0.24,-0.02 0.41,-0.24 0.38,-0.47l-0.48 -4.49c-0.03,-0.24 -0.24,-0.41 -0.48,-0.38l-8.57 0.92z"/>
  <path class="fil22" d="M41.98 72.02l0.22 2.09c0.03,0.23 0.24,0.4 0.48,0.38l8.55 -0.93c0.24,-0.02 0.41,-0.24 0.38,-0.47l-0.36 -3.34c-0.27,0.24 -0.56,0.45 -0.88,0.63 -2.43,1.35 -5.65,2.72 -8.39,1.64z"/>
  <polygon class="fil25" points="43.61,68.98 42.3,69.12 42.25,68.7 43.56,68.56 "/>
  <polygon class="fil25" points="44.92,68.83 43.87,68.95 43.82,68.53 44.88,68.41 "/>
  <path class="fil33" d="M41.71 69.6l0.04 0.38 9.42 -1.02 -0.04 -0.37c-0.03,-0.23 -0.23,-0.4 -0.47,-0.38l-8.57 0.93c-0.23,0.03 -0.4,0.23 -0.38,0.46z"/>
  <path class="fil32" d="M50.66 68.21l-8.57 0.93c-0.19,0.02 -0.33,0.16 -0.37,0.32l9.37 -1.01c-0.08,-0.16 -0.24,-0.26 -0.43,-0.24z"/>
  <path class="fil33" d="M42.16 73.76l0.04 0.35c0.03,0.23 0.24,0.4 0.48,0.38l8.55 -0.93c0.24,-0.02 0.41,-0.24 0.38,-0.47l-0.03 -0.35 -9.42 1.02z"/>
  <path class="fil32" d="M42.34 74.37c0.08,0.09 0.21,0.13 0.34,0.12l8.55 -0.93c0.13,-0.01 0.24,-0.08 0.31,-0.18l-9.2 0.99z"/>
  <path class="fil32" d="M50.11 70.63c0.17,1.59 -0.98,3.02 -2.57,3.19 -1.59,0.17 -3.02,-0.97 -3.19,-2.56 -0.17,-1.6 0.98,-3.02 2.57,-3.2 1.59,-0.17 3.02,0.98 3.19,2.57z"/>
  <path class="fil35" d="M49.85 70.66c0.15,1.45 -0.89,2.74 -2.34,2.9 -1.44,0.16 -2.74,-0.89 -2.9,-2.33 -0.15,-1.45 0.89,-2.75 2.34,-2.9 1.44,-0.16 2.74,0.89 2.9,2.33z"/>
  <path class="fil3" d="M49.49 70.7c0.13,1.25 -0.77,2.36 -2.02,2.5 -1.24,0.13 -2.36,-0.77 -2.5,-2.01 -0.13,-1.25 0.77,-2.37 2.01,-2.5 1.25,-0.14 2.37,0.76 2.51,2.01z"/>
  <path class="fil25" d="M49.31 70.72c0.12,1.15 -0.71,2.18 -1.86,2.3 -1.14,0.13 -2.18,-0.7 -2.3,-1.85 -0.12,-1.15 0.71,-2.18 1.85,-2.31 1.15,-0.12 2.18,0.71 2.31,1.86z"/>
  <path class="fil36" d="M48.21 70.84c0.06,0.54 -0.33,1.02 -0.87,1.08 -0.55,0.06 -1.03,-0.33 -1.09,-0.87 -0.06,-0.54 0.33,-1.03 0.87,-1.09 0.54,-0.05 1.03,0.34 1.09,0.88z"/>
  <path class="fil34" d="M49.04 69.89c-0.41,-0.69 -1.19,-1.12 -2.04,-1.03 -1.14,0.13 -1.97,1.16 -1.85,2.31 0.03,0.26 0.11,0.51 0.22,0.74 1.43,-0.1 2.77,-0.88 3.67,-2.02z"/>
  <path class="fil32" d="M47.7 70.34c-0.18,-0.15 -0.21,-0.42 -0.06,-0.6 0.15,-0.18 0.41,-0.21 0.6,-0.06 0.18,0.14 0.21,0.41 0.06,0.6 -0.15,0.18 -0.41,0.21 -0.6,0.06z"/>
  <path class="fil32" d="M47.51 71.1c-0.17,0.02 -0.32,-0.09 -0.34,-0.25 -0.03,-0.17 0.09,-0.32 0.25,-0.34 0.16,-0.03 0.32,0.08 0.34,0.25 0.03,0.16 -0.09,0.31 -0.25,0.34z"/>
  <polygon class="fil25" points="41.72,69.46 37.46,56.3 38.33,55.41 38.35,56.3 41.77,69.34 "/>
  <polygon class="fil25" points="50.86,68.24 49.77,56.3 49.74,55.88 50.38,56.3 50.97,68.31 "/>
  <path class="fil37" d="M74.16 9.34c-0.53,0.74 -0.18,2.03 0.86,3.63 1.77,2.75 5.54,6.42 10.35,9.86 7.62,5.45 14.96,8.26 16.38,6.26 0.7,-0.97 -0.13,-2.89 -2.04,-5.24 -2.02,-2.49 -5.25,-5.44 -9.17,-8.25 -7.62,-5.45 -14.95,-8.25 -16.38,-6.26z"/>
  <path class="fil12" d="M74.16 9.34c-0.53,0.74 -0.18,2.03 0.86,3.63 2.02,2.49 5.25,5.44 9.17,8.25 7.62,5.45 14.95,8.25 16.38,6.26 0.53,-0.74 0.18,-2.03 -0.86,-3.63 -2.02,-2.49 -5.25,-5.44 -9.17,-8.25 -7.62,-5.45 -14.95,-8.25 -16.38,-6.26z"/>
  <path class="fil12" d="M82.09 13.58c1.22,2.68 3.03,4.88 5.27,6.48 2.23,1.59 4.89,2.6 7.82,2.89 0.43,-0.6 0.79,-1.23 1.09,-1.87 0.24,-0.53 0.45,-1.06 0.61,-1.59 0.47,-1.53 0.6,-3.08 0.39,-4.5 -0.19,-1.25 -0.63,-2.4 -1.33,-3.37 -0.04,-0.05 -0.07,-0.09 -0.11,-0.14l0 0c-0.04,-0.06 -0.09,-0.13 -0.15,-0.19 -0.09,-0.12 -0.19,-0.23 -0.3,-0.34 -0.01,-0.01 -0.02,-0.03 -0.04,-0.04 -0.04,-0.04 -0.08,-0.08 -0.12,-0.13 -0.01,-0.01 -0.03,-0.02 -0.04,-0.04 -0.05,-0.05 -0.11,-0.09 -0.16,-0.14 -0.05,-0.05 -0.1,-0.09 -0.15,-0.14 -0.03,-0.02 -0.06,-0.04 -0.09,-0.07 -0.03,-0.02 -0.05,-0.04 -0.08,-0.06 -0.03,-0.03 -0.06,-0.05 -0.1,-0.08 -0.05,-0.04 -0.1,-0.07 -0.15,-0.11 -2.65,-1.89 -6.34,-1.55 -9.41,0.56 -0.53,0.36 -1.04,0.78 -1.53,1.25 -0.51,0.49 -0.98,1.03 -1.42,1.63z"/>
  <path class="fil37" d="M82.09 13.58c1.22,2.68 3.03,4.88 5.27,6.48 2.23,1.59 4.89,2.6 7.82,2.89 0.43,-0.6 0.79,-1.23 1.09,-1.87 0.24,-0.53 0.45,-1.06 0.61,-1.59 0.47,-1.53 0.6,-3.08 0.39,-4.5 -0.9,1.19 -2.31,2.03 -3.8,2.21 -2.51,0.29 -5.02,-1.04 -6.59,-3 -0.83,-1.04 -1.42,-2.24 -1.84,-3.5 -0.53,0.36 -1.04,0.78 -1.53,1.25 -0.51,0.49 -0.98,1.03 -1.42,1.63z"/>
  <path class="fil13" d="M82.09 13.58c1.22,2.68 3.03,4.88 5.27,6.48 2.23,1.59 4.89,2.6 7.82,2.89 0.43,-0.6 0.79,-1.23 1.09,-1.87 0.24,-0.53 0.45,-1.06 0.61,-1.59 -3.06,0.8 -6.02,0.27 -8.2,-1.29 -1.78,-1.27 -3.29,-2.93 -4.46,-4.91 -0.25,-0.43 -0.49,-0.88 -0.71,-1.34 -0.51,0.49 -0.98,1.03 -1.42,1.63z"/>
  <path class="fil38" d="M94.56 21.27c0.29,1.57 -0.18,3.18 -0.82,4.64 -0.65,1.46 -1.46,2.85 -1.91,4.38 -0.44,1.54 -0.47,3.29 0.4,4.62 0.02,-0.77 0.28,-1.53 0.72,-2.16 0.54,1.12 1.53,2.02 2.69,2.46 -0.96,-2.1 -0.49,-4.55 0.02,-6.8 0.51,-2.26 1.03,-4.68 0.16,-6.82 -0.35,-0.12 -0.92,-0.19 -1.26,-0.32z"/>
  <path class="fil13" d="M94.07 21.46c0.94,1.57 1.06,3.5 0.95,5.33 -0.11,1.82 -0.44,3.65 -0.32,5.48 0.13,1.82 0.79,3.72 2.26,4.82 -0.28,-0.84 -0.31,-1.76 -0.08,-2.62 1.03,0.99 2.45,1.57 3.88,1.58 -1.87,-1.88 -2.33,-4.71 -2.68,-7.34 -0.34,-2.63 -0.74,-5.45 -2.52,-7.41 -0.43,0 -1.07,0.16 -1.49,0.16z"/>
  <g id="_2014522885808">
   <g>
    <path class="fil39" d="M82.89 72.13c0,-0.02 0,-0.04 0.03,-0.05l0.07 -0.04c0.02,0 0.04,0 0.06,0.03l0.01 0.03 -0.15 0.07 -0.02 -0.04zm0.34 -0.11l0 0 -0.14 0.07 -0.02 -0.04c-0.02,-0.04 -0.05,-0.05 -0.1,-0.04l-0.07 0.03c-0.04,0.03 -0.05,0.06 -0.04,0.11l0.02 0.03 -0.15 0.07c-0.04,0.02 -0.05,0.05 -0.04,0.1l0.13 0.28c0.02,0.04 0.05,0.05 0.1,0.03l0.5 -0.22c0.04,-0.02 0.06,-0.06 0.04,-0.1l-0.12 -0.28c-0.02,-0.04 -0.06,-0.05 -0.11,-0.04z"/>
    <path class="fil39" d="M84.5 73.61c0.01,-0.07 0.05,-0.12 0.13,-0.12l0.22 0c0.08,0 0.12,0.05 0.13,0.12l0 0.1 -0.48 0 0 -0.1zm1.03 0.1l0 0 -0.45 0 0 -0.1c-0.02,-0.13 -0.09,-0.21 -0.23,-0.22l-0.22 0c-0.14,0.01 -0.21,0.09 -0.23,0.22l0 0.1 -0.45 0c-0.14,0.02 -0.21,0.09 -0.23,0.23l0 0.87c0.02,0.14 0.09,0.21 0.23,0.23l1.58 0c0.14,-0.02 0.21,-0.09 0.23,-0.23l0 -0.87c-0.02,-0.14 -0.09,-0.22 -0.23,-0.23z"/>
    <path class="fil39" d="M78.15 80.52c-0.01,-0.04 0.01,-0.07 0.04,-0.08l0.12 -0.03c0.03,-0.01 0.06,0.01 0.08,0.05l0.01 0.04 -0.24 0.07 -0.01 -0.05zm0.38 -0.05l0 0 -0.08 0.03 -0.02 -0.05c-0.02,-0.07 -0.07,-0.1 -0.14,-0.09l-0.11 0.03c-0.06,0.02 -0.09,0.07 -0.08,0.14l0.01 0.05 -0.08 0.02c-0.07,0.02 -0.1,0.07 -0.09,0.14l0.11 0.43c0.02,0.07 0.07,0.09 0.14,0.08l0.5 -0.12c0.07,-0.03 0.1,-0.07 0.09,-0.14l-0.11 -0.43c-0.02,-0.07 -0.07,-0.1 -0.14,-0.09z"/>
    <path class="fil39" d="M80.42 74.86l-0.27 -0.15 0.03 -0.05c0.02,-0.05 0.06,-0.06 0.11,-0.04l0.13 0.07c0.04,0.03 0.05,0.06 0.03,0.11l-0.03 0.06zm0.15 0.07l0 0 -0.09 -0.04 0.03 -0.06c0.03,-0.08 0.01,-0.15 -0.06,-0.2l-0.13 -0.06c-0.08,-0.04 -0.15,-0.02 -0.2,0.06l-0.03 0.05 -0.09 -0.04c-0.08,-0.04 -0.15,-0.02 -0.19,0.06l-0.49 0.93c-0.04,0.08 -0.02,0.15 0.06,0.2l0.56 0.3c0.09,0.03 0.15,0.01 0.2,-0.06l0.49 -0.94c0.03,-0.08 0.01,-0.15 -0.06,-0.2z"/>
    <path class="fil39" d="M77.56 71.92c-0.03,0.01 -0.06,0.02 -0.09,0.04 -0.04,0.03 -0.06,0.05 -0.08,0.08l-0.12 -0.17c-0.02,-0.03 -0.01,-0.05 0.01,-0.07l0.08 -0.07c0.03,-0.01 0.06,-0.01 0.08,0.02l0.12 0.17zm0.05 -0.01l0 0 -0.13 -0.19c-0.04,-0.04 -0.09,-0.05 -0.14,-0.02l-0.08 0.06c-0.05,0.04 -0.06,0.09 -0.02,0.14l0.13 0.18c-0.05,0.1 -0.04,0.19 0.01,0.29 0,0 0.01,0.01 0.01,0.01l0.3 0.41c0.04,0.05 0.08,0.06 0.13,0.02l0.34 -0.23c0.04,-0.05 0.05,-0.09 0.02,-0.14l-0.3 -0.41c0,-0.01 0,-0.02 -0.01,-0.02 -0.07,-0.08 -0.16,-0.11 -0.26,-0.1z"/>
    <path class="fil39" d="M80.17 69.99c-0.04,0.01 -0.07,0.03 -0.1,0.05 -0.03,0.02 -0.06,0.05 -0.08,0.07l-0.12 -0.17c-0.01,-0.02 -0.01,-0.05 0.02,-0.07l0.07 -0.06c0.04,-0.02 0.06,-0.01 0.08,0.01l0.13 0.17zm0.04 -0.01l0 0 -0.13 -0.18c-0.04,-0.05 -0.09,-0.06 -0.14,-0.02l-0.08 0.05c-0.05,0.04 -0.05,0.09 -0.02,0.14l0.13 0.19c-0.04,0.09 -0.04,0.19 0.01,0.28 0.01,0.01 0.01,0.01 0.01,0.02l0.3 0.41c0.04,0.04 0.09,0.05 0.14,0.02l0.33 -0.24c0.05,-0.04 0.05,-0.09 0.02,-0.14l-0.29 -0.41c-0.01,-0.01 -0.01,-0.01 -0.01,-0.01 -0.08,-0.08 -0.16,-0.12 -0.27,-0.11z"/>
    <path class="fil39" d="M75.76 74.65l-0.17 0 0 -0.05c0,-0.02 0.02,-0.04 0.05,-0.04l0.07 0c0.03,0 0.04,0.02 0.05,0.04l0 0.05zm0.3 0.08l0 0c-0.01,-0.05 -0.04,-0.08 -0.08,-0.08l-0.19 0 0 -0.05c0,-0.05 -0.03,-0.07 -0.08,-0.08l-0.07 0c-0.05,0.01 -0.08,0.03 -0.08,0.08l0 0.05 -0.19 0c-0.05,0 -0.07,0.03 -0.08,0.08l-0.04 0.31c0,0.05 0.02,0.07 0.08,0.08l0.69 0c0.05,-0.01 0.08,-0.03 0.08,-0.08l-0.04 -0.31z"/>
    <path class="fil39" d="M83.52 73.36l-0.13 0 0 -0.04c0.01,-0.02 0.02,-0.04 0.04,-0.04l0.06 0c0.02,0 0.03,0.02 0.03,0.04l0 0.04zm0.23 0.05l0 0c-0.01,-0.04 -0.03,-0.05 -0.06,-0.05l-0.14 0 0 -0.04c0,-0.04 -0.02,-0.06 -0.06,-0.06l-0.06 0c-0.04,0 -0.06,0.02 -0.06,0.06l0 0.04 -0.14 0c-0.03,-0.01 -0.05,0.01 -0.06,0.05l-0.03 0.24c0,0.03 0.02,0.05 0.06,0.05l0.52 0c0.04,0 0.06,-0.02 0.06,-0.05l-0.03 -0.24z"/>
    <path class="fil39" d="M78.74 73.48l-0.18 0.04 -0.18 0.05 -0.03 -0.11c-0.01,-0.06 0.02,-0.1 0.07,-0.11l0.17 -0.05c0.06,-0.01 0.1,0.02 0.12,0.07l0.03 0.11zm0.68 0l0 0c-0.05,-0.1 -0.12,-0.15 -0.21,-0.12l-0.4 0.1 -0.02 -0.1c-0.04,-0.11 -0.11,-0.15 -0.22,-0.13l-0.16 0.04c-0.1,0.04 -0.15,0.11 -0.13,0.21l0.03 0.11 -0.4 0.1c-0.1,0.02 -0.14,0.09 -0.13,0.21l0.08 0.68c0.03,0.1 0.1,0.14 0.21,0.12l0.74 -0.18 0.74 -0.19c0.1,-0.04 0.14,-0.11 0.13,-0.22l-0.26 -0.63z"/>
    <path class="fil39" d="M82.77 73.85c0.01,-0.05 0.05,-0.07 0.1,-0.06l0.13 0.03c0.05,0.02 0.07,0.06 0.06,0.1l-0.01 0.07 -0.3 -0.08 0.02 -0.06zm0.62 0.22l0 0 -0.28 -0.07 0.01 -0.06c0.02,-0.09 -0.02,-0.14 -0.1,-0.17l-0.14 -0.04c-0.09,-0.01 -0.14,0.02 -0.17,0.1l-0.02 0.07 -0.28 -0.08c-0.09,-0.01 -0.14,0.02 -0.18,0.11l-0.13 0.53c-0.01,0.09 0.02,0.15 0.1,0.18l0.98 0.25c0.08,0.01 0.14,-0.02 0.17,-0.1l0.14 -0.54c0.02,-0.09 -0.02,-0.15 -0.1,-0.18z"/>
    <path class="fil39" d="M73.96 74.42c-0.01,-0.07 0.01,-0.11 0.07,-0.13l0.17 -0.05c0.06,-0.01 0.11,0.01 0.13,0.07l0.02 0.08 -0.36 0.1 -0.03 -0.07zm0.81 -0.15l0 0 -0.34 0.1 -0.03 -0.08c-0.04,-0.1 -0.11,-0.14 -0.22,-0.12l-0.17 0.04c-0.1,0.05 -0.14,0.12 -0.12,0.23l0.02 0.08 -0.35 0.09c-0.1,0.04 -0.14,0.12 -0.12,0.22l0.19 0.67c0.04,0.11 0.11,0.15 0.22,0.13l1.22 -0.35c0.1,-0.04 0.14,-0.11 0.12,-0.22l-0.19 -0.67c-0.05,-0.1 -0.12,-0.15 -0.23,-0.12z"/>
    <path class="fil39" d="M76.71 72.29c0.01,-0.05 0.03,-0.08 0.08,-0.08l0.15 0c0.05,0 0.07,0.03 0.08,0.08l0 0.06 -0.31 0 0 -0.06zm0.48 0.06l0 0 -0.11 0 0 -0.06c-0.01,-0.08 -0.05,-0.13 -0.14,-0.14l-0.15 0c-0.08,0.01 -0.13,0.06 -0.14,0.14l0 0.06 -0.1 0c-0.09,0.01 -0.14,0.06 -0.15,0.15l0 0.55c0.01,0.09 0.06,0.14 0.15,0.15l0.64 0c0.09,-0.01 0.14,-0.06 0.14,-0.15l0 -0.55c0,-0.09 -0.05,-0.14 -0.14,-0.15z"/>
    <path class="fil39" d="M80.42 72.17c0,0.02 -0.01,0.04 -0.03,0.04l-0.07 0c-0.02,0 -0.03,-0.02 -0.04,-0.04l0 -0.03 0.14 0 0 0.03zm-0.21 -0.03l0 0 0.05 0 0 0.03c0,0.04 0.02,0.06 0.06,0.07l0.07 0c0.04,-0.01 0.06,-0.03 0.06,-0.07l0 -0.03 0.05 0c0.04,0 0.06,-0.02 0.07,-0.06l0 -0.25c-0.01,-0.04 -0.03,-0.06 -0.07,-0.07l-0.29 0c-0.04,0.01 -0.06,0.03 -0.07,0.07l0 0.25c0.01,0.04 0.03,0.06 0.07,0.06z"/>
    <path class="fil39" d="M81.02 70.46c0,0.02 -0.01,0.03 -0.03,0.03l-0.07 0c-0.02,0 -0.03,-0.01 -0.03,-0.03l0 -0.03 0.13 0 0 0.03zm-0.21 -0.03l0 0 0.05 0 0 0.03c0,0.04 0.02,0.06 0.06,0.06l0.07 0c0.04,0 0.06,-0.02 0.06,-0.06l0 -0.03 0.05 0c0.04,0 0.06,-0.03 0.07,-0.07l0 -0.5c-0.01,-0.04 -0.03,-0.06 -0.07,-0.06l-0.29 0c-0.04,0 -0.06,0.02 -0.07,0.06l0 0.5c0.01,0.04 0.03,0.07 0.07,0.07z"/>
    <path class="fil39" d="M76.5 74.41l-0.14 0 0 -0.03c0,-0.02 0.01,-0.04 0.04,-0.04l0.07 0c0.02,0 0.03,0.02 0.03,0.04l0 0.03zm0.08 0l0 0 -0.04 0 0 -0.03c-0.01,-0.04 -0.03,-0.06 -0.07,-0.07l-0.07 0c-0.04,0.01 -0.06,0.03 -0.07,0.07l0 0.03 -0.05 0c-0.04,0.01 -0.06,0.03 -0.06,0.07l0 0.49c0,0.04 0.02,0.06 0.06,0.06l0.3 0c0.04,0 0.07,-0.02 0.07,-0.06l0 -0.49c0,-0.04 -0.03,-0.06 -0.07,-0.07z"/>
    <path class="fil39" d="M80.47 67.34c-0.11,-0.04 -0.22,-0.06 -0.34,-0.06 -0.12,0 -0.23,0.02 -0.33,0.06l0 -0.09c0.01,-0.11 0.06,-0.18 0.17,-0.19l0.32 0c0.11,0.02 0.17,0.08 0.18,0.19l0 0.09zm0.13 0.06l0 0 0 -0.15c-0.01,-0.2 -0.12,-0.3 -0.31,-0.32l-0.32 0c-0.19,0.02 -0.29,0.12 -0.31,0.32l0 0.15c-0.29,0.17 -0.46,0.43 -0.5,0.77 0,0.02 0,0.03 0,0.05l0 0.45c0.02,0.19 0.12,0.3 0.32,0.32l1.31 0c0.19,-0.02 0.3,-0.13 0.32,-0.32l0 -0.45c0,-0.02 -0.01,-0.03 -0.01,-0.05 -0.04,-0.34 -0.2,-0.6 -0.5,-0.77z"/>
    <path class="fil39" d="M86.7 74.89l-0.15 -0.04 -0.15 -0.03 0.02 -0.09c0.02,-0.05 0.05,-0.07 0.1,-0.06l0.14 0.03c0.05,0.02 0.07,0.05 0.06,0.1l-0.02 0.09zm0.49 0.26l0 0c0.01,-0.09 -0.03,-0.15 -0.1,-0.17l-0.33 -0.08 0.02 -0.08c0.01,-0.09 -0.02,-0.15 -0.11,-0.18l-0.13 -0.03c-0.09,-0.01 -0.15,0.02 -0.18,0.1l-0.02 0.09 -0.32 -0.08c-0.08,-0.02 -0.14,0.01 -0.18,0.11l-0.21 0.52c-0.01,0.08 0.03,0.14 0.11,0.17l0.61 0.15 0.61 0.15c0.09,0.01 0.15,-0.03 0.18,-0.11l0.05 -0.56z"/>
    <path class="fil39" d="M80.79 74.08l-0.09 -0.02 -0.08 -0.01 0.01 -0.06c0.01,-0.02 0.03,-0.03 0.06,-0.03l0.07 0.02c0.03,0.01 0.04,0.03 0.04,0.06l-0.01 0.04zm0.28 0.16l0 0c0.01,-0.06 -0.02,-0.09 -0.06,-0.1l-0.19 -0.05 0.01 -0.04c0.01,-0.05 -0.01,-0.09 -0.06,-0.1l-0.08 -0.02c-0.04,-0.01 -0.08,0.01 -0.1,0.05l0 0.06 -0.19 -0.05c-0.05,-0.01 -0.08,0.01 -0.1,0.06l-0.12 0.3c-0.01,0.05 0.01,0.08 0.06,0.09l0.35 0.09 0.35 0.09c0.05,0 0.08,-0.02 0.1,-0.06l0.03 -0.32z"/>
    <path class="fil39" d="M78.83 80.28l0.01 0.11 0.02 0.1 -0.06 0.01c-0.04,0 -0.06,-0.02 -0.07,-0.05l-0.01 -0.1c0,-0.03 0.02,-0.05 0.05,-0.06l0.06 -0.01zm0.05 -0.38l0 0c-0.06,0.02 -0.09,0.06 -0.08,0.11l0.02 0.23 -0.05 0.01c-0.06,0.01 -0.09,0.05 -0.09,0.11l0.01 0.09c0.01,0.06 0.05,0.09 0.11,0.09l0.06 -0.01 0.02 0.23c0.01,0.06 0.05,0.09 0.12,0.09l0.38 0.01c0.06,-0.02 0.09,-0.05 0.09,-0.11l-0.05 -0.43 -0.06 -0.43c-0.01,-0.06 -0.04,-0.09 -0.1,-0.09l-0.38 0.1z"/>
    <path class="fil39" d="M79.81 78.26c-0.02,-0.05 0,-0.08 0.04,-0.1l0.13 -0.06c0.05,-0.01 0.09,0 0.11,0.05l0.03 0.06 -0.29 0.11 -0.02 -0.06zm0.63 -0.18l0 0 -0.27 0.1 -0.02 -0.06c-0.04,-0.08 -0.11,-0.1 -0.19,-0.08l-0.13 0.06c-0.08,0.04 -0.11,0.1 -0.08,0.18l0.02 0.06 -0.27 0.11c-0.07,0.04 -0.1,0.11 -0.08,0.19l0.22 0.52c0.04,0.07 0.1,0.1 0.18,0.07l0.93 -0.37c0.08,-0.05 0.11,-0.11 0.08,-0.19l-0.2 -0.52c-0.04,-0.08 -0.11,-0.1 -0.19,-0.07z"/>
    <path class="fil39" d="M82.48 72.8c0.01,-0.05 0.03,-0.07 0.08,-0.07l0.12 0c0.05,0 0.07,0.02 0.08,0.07l0 0.05 -0.28 0 0 -0.05zm0.43 0.05l0 0 -0.1 0 0 -0.05c0,-0.08 -0.05,-0.12 -0.13,-0.13l-0.12 0c-0.08,0.01 -0.13,0.05 -0.13,0.13l0 0.05 -0.1 0c-0.08,0.01 -0.12,0.06 -0.13,0.13l0 0.5c0.01,0.08 0.05,0.12 0.13,0.13l0.58 0c0.08,-0.01 0.12,-0.05 0.13,-0.13l0 -0.5c-0.01,-0.07 -0.05,-0.12 -0.13,-0.13z"/>
    <path class="fil39" d="M80.82 74.84c0,-0.01 0.01,-0.02 0.03,-0.02l0.05 0c0.02,0 0.03,0.01 0.03,0.02l0 0.02 -0.11 0 0 -0.02zm0.17 0.02l0 0 -0.04 0 0 -0.02c0,-0.03 -0.02,-0.04 -0.05,-0.05l-0.05 0c-0.03,0.01 -0.05,0.02 -0.05,0.05l0 0.02 -0.04 0c-0.03,0.01 -0.04,0.03 -0.05,0.05l0 0.48c0.01,0.03 0.02,0.05 0.05,0.06l0.23 0c0.03,-0.01 0.05,-0.03 0.05,-0.06l0 -0.48c0,-0.03 -0.02,-0.04 -0.05,-0.05z"/>
    <path class="fil39" d="M81.22 70.51c0,-0.02 0.01,-0.04 0.04,-0.04l0.07 0c0.02,0 0.04,0.02 0.04,0.04l0 0.03 -0.15 0 0 -0.03zm0.23 0.03l0 0 -0.05 0 0 -0.03c-0.01,-0.04 -0.03,-0.06 -0.07,-0.07l-0.07 0c-0.04,0.01 -0.07,0.03 -0.07,0.07l0 0.03 -0.06 0c-0.04,0.01 -0.06,0.03 -0.07,0.07l0 0.27c0.01,0.05 0.03,0.07 0.07,0.07l0.32 0c0.04,0 0.07,-0.02 0.07,-0.07l0 -0.27c0,-0.04 -0.03,-0.06 -0.07,-0.07z"/>
    <path class="fil39" d="M80.12 72.6c0.01,-0.08 0.05,-0.12 0.13,-0.12l0.21 0c0.08,0 0.12,0.04 0.13,0.12l0 0.09 -0.47 0 0 -0.09zm0.72 0.09l0 0 -0.16 0 0 -0.09c-0.01,-0.13 -0.09,-0.2 -0.22,-0.22l-0.21 0c-0.13,0.02 -0.21,0.09 -0.22,0.22l0 0.09 -0.17 0c-0.13,0.02 -0.2,0.09 -0.21,0.22l0 0.84c0.01,0.14 0.08,0.21 0.21,0.22l0.98 0c0.14,-0.01 0.21,-0.08 0.22,-0.22l0 -0.84c-0.01,-0.13 -0.08,-0.2 -0.22,-0.22z"/>
    <path class="fil39" d="M77.34 73.47l-0.31 0 0 -0.06c0.01,-0.05 0.04,-0.08 0.08,-0.08l0.15 0c0.05,0 0.07,0.03 0.08,0.08l0 0.06zm0.16 0l0 0 -0.1 0 0 -0.06c-0.01,-0.09 -0.05,-0.13 -0.14,-0.14l-0.15 0c-0.08,0.01 -0.13,0.05 -0.14,0.14l0 0.06 -0.1 0c-0.08,0.01 -0.13,0.06 -0.14,0.15l0 1.03c0.01,0.09 0.06,0.13 0.14,0.14l0.63 0c0.09,0 0.14,-0.05 0.14,-0.14l0 -1.03c0,-0.09 -0.05,-0.14 -0.14,-0.15z"/>
    <path class="fil39" d="M81.77 73.1c-0.05,-0.02 -0.1,-0.03 -0.16,-0.03 -0.05,0 -0.11,0.01 -0.16,0.03l0 -0.31c0.01,-0.06 0.04,-0.08 0.09,-0.09l0.15 0c0.05,0.01 0.08,0.03 0.08,0.09l0 0.31zm0.06 0.03l0 0 0 -0.34c0,-0.09 -0.05,-0.14 -0.14,-0.15l-0.15 0c-0.09,0.01 -0.14,0.06 -0.15,0.15l0 0.34c-0.14,0.08 -0.21,0.2 -0.24,0.36 0,0.01 0,0.02 0,0.02l0 0.77c0.01,0.09 0.06,0.14 0.15,0.15l0.62 0c0.09,-0.01 0.14,-0.06 0.15,-0.15l0 -0.77c0,0 0,-0.01 0,-0.02 -0.02,-0.16 -0.1,-0.28 -0.24,-0.36z"/>
    <path class="fil39" d="M78.12 71.48c0.02,0.04 0.04,0.09 0.08,0.13 0.03,0.04 0.07,0.08 0.11,0.11l-0.23 0.18c-0.05,0.03 -0.09,0.02 -0.12,-0.02l-0.09 -0.11c-0.02,-0.04 -0.02,-0.08 0.02,-0.11l0.23 -0.18zm-0.01 -0.07l0 0 -0.26 0.2c-0.06,0.06 -0.07,0.13 -0.03,0.2l0.09 0.11c0.06,0.07 0.13,0.08 0.2,0.03l0.26 -0.2c0.14,0.06 0.28,0.04 0.42,-0.04 0,0 0.01,-0.01 0.01,-0.01l0.58 -0.45c0.07,-0.06 0.08,-0.13 0.03,-0.2l-0.37 -0.47c-0.06,-0.07 -0.12,-0.08 -0.2,-0.03l-0.58 0.45c0,0.01 -0.01,0.01 -0.01,0.02 -0.11,0.11 -0.16,0.24 -0.14,0.39z"/>
    <path class="fil39" d="M80.53 69.66c0,-0.02 -0.01,-0.03 -0.02,-0.04 -0.01,-0.02 -0.02,-0.03 -0.03,-0.04l0.07 -0.05c0.02,-0.01 0.03,-0.01 0.04,0l0.02 0.04c0.01,0.01 0.01,0.03 0,0.04l-0.08 0.05zm0 0.02l0 0 0.09 -0.06c0.02,-0.02 0.02,-0.04 0.01,-0.06l-0.03 -0.04c-0.01,-0.02 -0.03,-0.02 -0.06,-0.01l-0.08 0.06c-0.05,-0.02 -0.09,-0.02 -0.13,0 0,0.01 0,0.01 -0.01,0.01l-0.19 0.13c-0.02,0.02 -0.02,0.04 -0.01,0.06l0.11 0.16c0.02,0.01 0.04,0.02 0.06,0.01l0.19 -0.14c0,0 0,0 0.01,0 0.03,-0.03 0.05,-0.07 0.04,-0.12z"/>
    <path class="fil39" d="M81.75 80.35l-0.12 -0.03 -0.12 -0.03 0.01 -0.07c0.02,-0.04 0.04,-0.06 0.08,-0.05l0.12 0.03c0.04,0.01 0.06,0.04 0.05,0.08l-0.02 0.07zm0.42 0.23l0 0c0,-0.08 -0.03,-0.13 -0.09,-0.15l-0.27 -0.07 0.01 -0.07c0.01,-0.07 -0.02,-0.12 -0.09,-0.14l-0.11 -0.03c-0.08,-0.01 -0.13,0.02 -0.15,0.09l-0.02 0.07 -0.27 -0.07c-0.07,-0.02 -0.12,0.01 -0.15,0.09l-0.17 0.44c-0.02,0.07 0.01,0.12 0.09,0.15l0.51 0.12 0.52 0.13c0.07,0.01 0.12,-0.02 0.14,-0.09l0.05 -0.47z"/>
    <path class="fil39" d="M80.9 69.1c0,-0.02 0.01,-0.03 0.03,-0.03l0.05 0c0.02,0 0.03,0.01 0.03,0.03l0 0.03 -0.11 0 0 -0.03zm0.25 0.03l0 0 -0.11 0 0 -0.03c0,-0.03 -0.02,-0.05 -0.06,-0.05l-0.05 0c-0.04,0 -0.06,0.02 -0.06,0.05l0 0.03 -0.12 0c-0.03,0 -0.05,0.02 -0.05,0.06l0 0.48c0,0.03 0.02,0.05 0.05,0.05l0.4 0c0.04,0 0.06,-0.02 0.06,-0.05l0 -0.48c0,-0.04 -0.02,-0.06 -0.06,-0.06z"/>
    <path class="fil39" d="M76.25 74.08c0.03,0.05 0.02,0.1 -0.02,0.14l-0.15 0.11c-0.06,0.03 -0.1,0.02 -0.15,-0.03l-0.05 -0.07 0.32 -0.22 0.05 0.07zm-0.73 0.41l0 0 0.3 -0.21 0.05 0.07c0.07,0.08 0.16,0.09 0.25,0.04l0.15 -0.1c0.08,-0.08 0.1,-0.16 0.04,-0.26l-0.05 -0.06 0.3 -0.22c0.09,-0.07 0.1,-0.16 0.05,-0.25l-0.41 -0.58c-0.07,-0.08 -0.15,-0.1 -0.25,-0.04l-1.05 0.74c-0.08,0.07 -0.1,0.16 -0.04,0.26l0.41 0.57c0.07,0.08 0.15,0.1 0.25,0.04z"/>
    <path class="fil39" d="M83.61 72.58c0,-0.04 0.02,-0.06 0.06,-0.06l0.1 0c0.04,0 0.06,0.02 0.06,0.06l0 0.04 -0.22 0 0 -0.04zm0.34 0.04l0 0 -0.07 0 0 -0.04c-0.01,-0.07 -0.04,-0.1 -0.11,-0.11l-0.1 0c-0.06,0.01 -0.1,0.04 -0.1,0.11l0 0.04 -0.08 0c-0.06,0.01 -0.1,0.04 -0.11,0.11l0 0.39c0.01,0.07 0.05,0.1 0.11,0.11l0.46 0c0.07,-0.01 0.1,-0.04 0.11,-0.11l0 -0.39c-0.01,-0.07 -0.04,-0.1 -0.11,-0.11z"/>
    <path class="fil39" d="M79.4 74.49c0,-0.02 0.01,-0.04 0.03,-0.04l0.06 0c0.02,0 0.03,0.02 0.04,0.04l0 0.03 -0.13 0 0 -0.03zm0.2 0.03l0 0 -0.04 0 0 -0.03c-0.01,-0.04 -0.03,-0.06 -0.07,-0.06l-0.06 0c-0.04,0 -0.06,0.02 -0.06,0.06l0 0.03 -0.05 0c-0.04,0 -0.06,0.02 -0.06,0.06l0 0.24c0,0.03 0.02,0.05 0.06,0.06l0.28 0c0.04,-0.01 0.06,-0.03 0.06,-0.06l0 -0.24c0,-0.04 -0.02,-0.06 -0.06,-0.06z"/>
    <path class="fil39" d="M80.27 76.35c0.04,-0.06 0.09,-0.08 0.16,-0.05l0.19 0.1c0.06,0.04 0.07,0.09 0.04,0.16l-0.04 0.08 -0.4 -0.21 0.05 -0.08zm0.57 0.41l0 0 -0.14 -0.07 0.04 -0.08c0.06,-0.12 0.03,-0.22 -0.08,-0.29l-0.18 -0.1c-0.12,-0.05 -0.22,-0.02 -0.29,0.09l-0.05 0.08 -0.14 -0.08c-0.12,-0.05 -0.22,-0.02 -0.29,0.08l-0.39 0.73c-0.05,0.12 -0.02,0.22 0.09,0.29l0.85 0.45c0.12,0.05 0.21,0.02 0.28,-0.08l0.39 -0.73c0.05,-0.12 0.02,-0.21 -0.09,-0.29z"/>
    <path class="fil39" d="M79.35 71.98l-0.28 -0.13 0.03 -0.06c0.02,-0.04 0.06,-0.05 0.1,-0.04l0.13 0.06c0.04,0.03 0.06,0.07 0.04,0.11l-0.02 0.06zm0.14 0.06l0 0 -0.09 -0.03 0.03 -0.06c0.03,-0.09 0,-0.15 -0.07,-0.19l-0.13 -0.06c-0.08,-0.03 -0.15,-0.01 -0.19,0.07l-0.03 0.05 -0.09 -0.04c-0.08,-0.03 -0.15,0 -0.19,0.07l-0.43 0.94c-0.03,0.08 -0.01,0.15 0.07,0.19l0.57 0.26c0.08,0.03 0.14,0.01 0.19,-0.07l0.43 -0.93c0.03,-0.08 0.01,-0.15 -0.07,-0.2z"/>
    <path class="fil39" d="M72.54 75.64l0.1 0.19 -0.05 0.01c-0.03,0.02 -0.05,0.01 -0.07,-0.02l-0.05 -0.09c-0.01,-0.03 0,-0.05 0.03,-0.07l0.04 -0.02zm-0.05 -0.11l0 0 0.03 0.07 -0.04 0.02c-0.05,0.03 -0.07,0.07 -0.05,0.13l0.05 0.09c0.03,0.05 0.08,0.06 0.13,0.04l0.05 -0.02 0.03 0.06c0.03,0.05 0.07,0.07 0.13,0.05l0.63 -0.33c0.05,-0.03 0.07,-0.08 0.05,-0.13l-0.2 -0.39c-0.04,-0.05 -0.08,-0.07 -0.14,-0.05l-0.63 0.33c-0.05,0.03 -0.07,0.08 -0.04,0.13z"/>
    <path class="fil39" d="M79.93 81.21c0.07,0.02 0.14,0.04 0.22,0.04 0.07,0 0.14,-0.02 0.21,-0.04l0 0.41c-0.01,0.07 -0.04,0.11 -0.11,0.12l-0.2 0c-0.07,-0.01 -0.11,-0.05 -0.12,-0.12l0 -0.41zm-0.08 -0.04l0 0 0 0.45c0.01,0.12 0.08,0.19 0.2,0.2l0.2 0c0.12,-0.01 0.18,-0.08 0.19,-0.2l0 -0.45c0.19,-0.11 0.29,-0.27 0.32,-0.49 0,-0.01 0,-0.02 0,-0.02l0 -1.02c-0.01,-0.13 -0.08,-0.19 -0.2,-0.21l-0.83 0c-0.12,0.02 -0.18,0.08 -0.2,0.21l0 1.02c0,0 0,0.01 0,0.02 0.03,0.22 0.14,0.38 0.32,0.49z"/>
    <path class="fil39" d="M82.29 71.49l-0.14 -0.1 -0.14 -0.1 0.06 -0.08c0.04,-0.04 0.08,-0.05 0.13,-0.02l0.12 0.1c0.05,0.04 0.05,0.08 0.02,0.12l-0.05 0.08zm0.39 0.5l0 0c0.05,-0.1 0.03,-0.17 -0.04,-0.23l-0.3 -0.22 0.06 -0.08c0.05,-0.09 0.04,-0.16 -0.03,-0.23l-0.13 -0.09c-0.08,-0.06 -0.16,-0.04 -0.23,0.03l-0.05 0.08 -0.3 -0.23c-0.08,-0.05 -0.15,-0.04 -0.23,0.03l-0.44 0.44c-0.05,0.09 -0.04,0.16 0.03,0.23l0.56 0.42 0.56 0.43c0.09,0.05 0.16,0.04 0.23,-0.04l0.31 -0.54z"/>
    <path class="fil39" d="M80.31 69.16l-0.05 0.02 -0.05 0.03 -0.02 -0.03c0,-0.01 0,-0.02 0.01,-0.03l0.05 -0.03c0.02,-0.01 0.03,-0.01 0.04,0.01l0.02 0.03zm0.2 -0.06l0 0c-0.03,-0.02 -0.05,-0.03 -0.08,-0.02l-0.1 0.07 -0.02 -0.03c-0.02,-0.03 -0.04,-0.03 -0.07,-0.02l-0.05 0.02c-0.02,0.02 -0.03,0.05 -0.01,0.08l0.01 0.03 -0.11 0.06c-0.02,0.01 -0.03,0.04 -0.02,0.07l0.08 0.19c0.02,0.02 0.05,0.03 0.07,0.02l0.21 -0.12 0.19 -0.11c0.03,-0.02 0.04,-0.05 0.02,-0.08l-0.12 -0.16z"/>
    <path class="fil39" d="M79.7 70.36l-0.14 -0.1 0.03 -0.04c0.02,-0.03 0.04,-0.03 0.06,-0.01l0.08 0.04c0.01,0.03 0.02,0.05 0,0.08l-0.03 0.03zm0.2 0.26l0 0c0.03,-0.05 0.03,-0.09 -0.01,-0.12l-0.16 -0.11 0.03 -0.05c0.03,-0.04 0.02,-0.08 -0.02,-0.11l-0.06 -0.05c-0.05,-0.03 -0.08,-0.02 -0.12,0.01l-0.03 0.05 -0.16 -0.12c-0.03,-0.03 -0.07,-0.03 -0.11,0.01l-0.23 0.24c-0.03,0.04 -0.03,0.08 0.01,0.11l0.3 0.23 0.29 0.22c0.04,0.02 0.08,0.02 0.12,-0.02l0.15 -0.29z"/>
    <path class="fil39" d="M81.02 72.05c0.01,-0.02 0.02,-0.04 0.05,-0.04l0.07 0c0.03,0 0.04,0.02 0.05,0.04l0 0.04 -0.17 0 0 -0.04zm0.36 0.04l0 0 -0.16 0 0 -0.04c0,-0.05 -0.03,-0.07 -0.08,-0.08l-0.07 0c-0.05,0.01 -0.08,0.03 -0.08,0.08l0 0.04 -0.16 0c-0.05,0 -0.07,0.03 -0.08,0.08l0 0.29c0.01,0.05 0.03,0.08 0.08,0.08l0.55 0c0.05,0 0.07,-0.03 0.07,-0.08l0 -0.29c0,-0.05 -0.02,-0.08 -0.07,-0.08z"/>
    <path class="fil39" d="M79.78 77.75l-0.08 -0.05 0.01 -0.01c0.01,-0.01 0.02,-0.01 0.03,-0.01l0.04 0.02c0.01,0.01 0.01,0.02 0.01,0.03l-0.01 0.02zm0.04 0.02l0 0 -0.02 -0.01 0.01 -0.02c0,-0.02 0,-0.04 -0.02,-0.06l-0.04 -0.02c-0.02,-0.01 -0.04,0 -0.06,0.02l-0.01 0.02 -0.02 -0.01c-0.03,-0.02 -0.05,-0.01 -0.06,0.01l-0.14 0.27c-0.01,0.03 -0.01,0.05 0.02,0.06l0.16 0.09c0.03,0.01 0.04,0 0.06,-0.02l0.14 -0.27c0.01,-0.02 0.01,-0.04 -0.02,-0.06z"/>
    <path class="fil39" d="M80.15 71.02l-0.12 0.03 -0.13 0.04 -0.02 -0.07c-0.01,-0.05 0.01,-0.08 0.05,-0.09l0.11 -0.03c0.05,-0.01 0.08,0.01 0.09,0.05l0.02 0.07zm0.47 0.01l0 0c-0.03,-0.08 -0.08,-0.11 -0.15,-0.09l-0.27 0.07 -0.02 -0.07c-0.02,-0.07 -0.07,-0.1 -0.14,-0.09l-0.12 0.03c-0.07,0.02 -0.1,0.07 -0.09,0.15l0.02 0.07 -0.27 0.07c-0.07,0.01 -0.1,0.07 -0.09,0.15l0.05 0.46c0.02,0.07 0.07,0.1 0.15,0.09l0.51 -0.13 0.51 -0.13c0.07,-0.03 0.1,-0.08 0.09,-0.15l-0.18 -0.43z"/>
    <path class="fil39" d="M80.42 75.84c-0.02,-0.02 -0.03,-0.04 -0.02,-0.07l0.04 -0.06c0.01,-0.02 0.03,-0.03 0.06,-0.02l0.02 0.02 -0.07 0.14 -0.03 -0.01zm0.19 -0.29l0 0 -0.07 0.13 -0.03 -0.01c-0.04,-0.02 -0.07,-0.01 -0.1,0.02l-0.04 0.07c-0.01,0.04 0,0.08 0.04,0.1l0.02 0.02 -0.07 0.13c-0.01,0.04 0,0.07 0.03,0.1l0.26 0.13c0.04,0.02 0.07,0.01 0.09,-0.02l0.25 -0.46c0.02,-0.05 0.01,-0.08 -0.02,-0.1l-0.26 -0.14c-0.04,-0.02 -0.07,-0.01 -0.1,0.03z"/>
    <path class="fil39" d="M84.35 73.28c-0.02,0.02 -0.04,0.02 -0.05,0l-0.06 -0.03c-0.01,-0.02 -0.01,-0.04 0,-0.05l0.02 -0.03 0.11 0.09 -0.02 0.02zm-0.22 -0.21l0 0 0.1 0.08 -0.01 0.03c-0.03,0.03 -0.02,0.06 0.01,0.09l0.05 0.04c0.03,0.02 0.06,0.02 0.09,-0.02l0.02 -0.01 0.1 0.08c0.04,0.02 0.07,0.01 0.1,-0.02l0.15 -0.2c0.02,-0.03 0.02,-0.06 -0.01,-0.09l-0.37 -0.28c-0.03,-0.02 -0.06,-0.02 -0.09,0.01l-0.15 0.2c-0.02,0.03 -0.02,0.07 0.01,0.09z"/>
    <path class="fil39" d="M79.81 72.38c-0.02,0.01 -0.03,0.01 -0.05,0l-0.03 -0.03c-0.02,0 -0.02,-0.02 -0.01,-0.03l0.01 -0.02 0.08 0.06 0 0.02zm-0.17 -0.15l0 0 0.08 0.06 -0.01 0.01c-0.02,0.03 -0.02,0.05 0.01,0.07l0.03 0.03c0.03,0.02 0.05,0.01 0.07,-0.01l0.01 -0.02 0.08 0.06c0.02,0.02 0.05,0.02 0.07,-0.01l0.11 -0.14c0.02,-0.03 0.01,-0.05 -0.01,-0.07l-0.27 -0.21c-0.02,-0.01 -0.04,-0.01 -0.07,0.01l-0.11 0.15c-0.01,0.02 -0.01,0.05 0.01,0.07z"/>
    <path class="fil39" d="M80.84 71.18c-0.01,0.02 -0.02,0.02 -0.03,0.01l-0.05 -0.03c-0.01,-0.01 -0.01,-0.02 0,-0.04l0.01 -0.02 0.09 0.07 -0.02 0.01zm-0.16 -0.15l0 0 0.08 0.06 -0.02 0.02c-0.01,0.02 -0.01,0.05 0.01,0.07l0.04 0.03c0.03,0.01 0.05,0.01 0.07,-0.01l0.01 -0.02 0.08 0.06c0.03,0.02 0.05,0.01 0.07,-0.01l0.11 -0.15c0.02,-0.02 0.02,-0.05 0,-0.06l-0.28 -0.22c-0.02,-0.01 -0.04,-0.01 -0.06,0.01l-0.12 0.15c-0.02,0.03 -0.01,0.05 0.01,0.07z"/>
    <path class="fil39" d="M79.75 69.72c0.01,0.04 0,0.06 -0.03,0.07l-0.1 0.04c-0.03,0 -0.06,-0.01 -0.07,-0.04l-0.01 -0.04 0.19 -0.07 0.02 0.04zm-0.44 0.11l0 0 0.19 -0.07 0.01 0.04c0.02,0.06 0.07,0.08 0.13,0.06l0.09 -0.02c0.05,-0.03 0.07,-0.07 0.06,-0.13l-0.01 -0.04 0.18 -0.06c0.06,-0.03 0.08,-0.07 0.07,-0.13l-0.12 -0.37c-0.03,-0.05 -0.07,-0.07 -0.13,-0.06l-0.66 0.22c-0.05,0.03 -0.07,0.07 -0.06,0.13l0.12 0.36c0.03,0.06 0.07,0.08 0.13,0.07z"/>
    <path class="fil39" d="M82.61 80.87l-0.06 -0.01 -0.06 -0.02 0.01 -0.03c0.01,-0.02 0.02,-0.03 0.04,-0.03l0.06 0.02c0.02,0 0.03,0.01 0.02,0.03l-0.01 0.04zm0.21 0.11l0 0c0,-0.04 -0.01,-0.06 -0.05,-0.07l-0.13 -0.03 0.01 -0.04c0,-0.03 -0.01,-0.06 -0.04,-0.07l-0.06 -0.02c-0.04,0 -0.06,0.02 -0.08,0.05l0 0.03 -0.14 -0.03c-0.03,-0.01 -0.05,0.01 -0.07,0.04l-0.09 0.22c0,0.04 0.02,0.06 0.05,0.07l0.25 0.07 0.25 0.06c0.04,0 0.06,-0.02 0.08,-0.05l0.02 -0.23z"/>
    <path class="fil39" d="M87.63 75.41c0.01,-0.03 0.03,-0.04 0.06,-0.03l0.08 0.03c0.03,0.01 0.03,0.04 0.03,0.06l-0.02 0.04 -0.16 -0.06 0.01 -0.04zm0.34 0.17l0 0 -0.16 -0.06 0.02 -0.03c0.01,-0.05 0,-0.09 -0.05,-0.11l-0.07 -0.03c-0.05,-0.02 -0.09,0 -0.11,0.04l-0.02 0.04 -0.16 -0.06c-0.04,-0.02 -0.08,0 -0.1,0.05l-0.12 0.3c-0.01,0.05 0,0.08 0.05,0.11l0.55 0.21c0.05,0.01 0.08,0 0.1,-0.05l0.12 -0.3c0.01,-0.05 0,-0.09 -0.05,-0.11z"/>
    <path class="fil39" d="M85.98 74.48l0.05 0.04 0.05 0.04 -0.03 0.03c-0.01,0.01 -0.03,0.01 -0.04,0l-0.05 -0.04c-0.01,-0.01 -0.01,-0.03 0,-0.04l0.02 -0.03zm-0.13 -0.19l0 0c-0.02,0.03 -0.02,0.06 0.01,0.08l0.1 0.09 -0.02 0.03c-0.02,0.03 -0.02,0.06 0.01,0.08l0.04 0.04c0.03,0.02 0.06,0.01 0.08,-0.01l0.03 -0.02 0.1 0.08c0.03,0.02 0.05,0.02 0.08,0l0.17 -0.15c0.02,-0.04 0.02,-0.06 0,-0.09l-0.2 -0.16 -0.2 -0.17c-0.03,-0.02 -0.05,-0.02 -0.08,0.01l-0.12 0.19z"/>
    <path class="fil39" d="M80.58 79.02c0.01,-0.01 0.02,-0.01 0.03,0l0.04 0.02c0.01,0.01 0.01,0.02 0.01,0.04l-0.02 0.01 -0.07 -0.06 0.01 -0.01zm0.1 0.1l0 0 -0.02 -0.02 0.01 -0.01c0.01,-0.02 0.01,-0.04 -0.01,-0.06l-0.03 -0.03c-0.02,-0.01 -0.04,-0.01 -0.06,0.01l-0.02 0.01 -0.02 -0.02c-0.02,-0.01 -0.04,-0.01 -0.06,0.01l-0.11 0.13c-0.01,0.02 -0.01,0.04 0.01,0.06l0.15 0.13c0.03,0.01 0.05,0 0.07,-0.01l0.1 -0.14c0.01,-0.02 0.01,-0.04 -0.01,-0.06z"/>
    <path class="fil39" d="M81.01 79.72l-0.07 0.09 -0.02 -0.01c-0.02,-0.01 -0.02,-0.03 -0.01,-0.04l0.03 -0.04c0.01,-0.02 0.03,-0.02 0.05,-0.01l0.02 0.01zm0.04 -0.05l0 0 -0.03 0.03 -0.02 -0.01c-0.03,-0.02 -0.05,-0.01 -0.08,0.01l-0.03 0.04c-0.02,0.03 -0.01,0.06 0.01,0.08l0.02 0.02 -0.02 0.03c-0.02,0.02 -0.01,0.05 0.01,0.08l0.32 0.23c0.03,0.02 0.06,0.01 0.08,-0.01l0.14 -0.2c0.02,-0.02 0.02,-0.05 -0.01,-0.08l-0.32 -0.23c-0.03,-0.02 -0.05,-0.01 -0.07,0.01z"/>
    <path class="fil39" d="M80.8 77.71l-0.08 0 0.01 -0.02c0,-0.01 0,-0.01 0.02,-0.02l0.03 0.01c0.01,0 0.02,0.01 0.02,0.02l0 0.01zm0.04 0.01l0 0 -0.02 0 0 -0.02c0,-0.02 -0.01,-0.03 -0.03,-0.04l-0.04 0c-0.02,0 -0.04,0.01 -0.04,0.03l0 0.02 -0.03 -0.01c-0.02,0 -0.04,0.02 -0.04,0.04l-0.02 0.27c0,0.02 0.01,0.03 0.03,0.03l0.17 0.02c0.02,0 0.03,-0.01 0.03,-0.04l0.03 -0.26c0,-0.02 -0.01,-0.03 -0.04,-0.04z"/>
    <path class="fil39" d="M79.41 76.37l0.07 0.05 -0.01 0.01c-0.01,0.01 -0.02,0.02 -0.03,0.01l-0.03 -0.02c-0.02,-0.01 -0.02,-0.02 -0.01,-0.03l0.01 -0.02zm-0.05 -0.02l0 0 0.03 0.01 -0.01 0.02c-0.01,0.02 -0.01,0.04 0.02,0.06l0.03 0.02c0.02,0.01 0.04,0 0.06,-0.02l0.01 -0.01 0.02 0.01c0.02,0.01 0.04,0.01 0.06,-0.01l0.15 -0.26c0.01,-0.02 0,-0.04 -0.02,-0.05l-0.15 -0.1c-0.03,-0.01 -0.04,0 -0.06,0.02l-0.15 0.25c-0.01,0.03 0,0.04 0.01,0.06z"/>
    <path class="fil39" d="M77.51 81.12l0.05 0.09 -0.02 0.01c-0.02,0 -0.04,0 -0.04,-0.02l-0.02 -0.04c-0.01,-0.02 0,-0.03 0.01,-0.04l0.02 0zm-0.02 -0.05l0 0 0.01 0.03 -0.02 0.01c-0.02,0.01 -0.03,0.03 -0.02,0.06l0.02 0.04c0.01,0.03 0.03,0.04 0.06,0.03l0.02 -0.01 0.01 0.03c0.02,0.02 0.04,0.03 0.07,0.02l0.31 -0.14c0.02,-0.01 0.03,-0.03 0.02,-0.06l-0.08 -0.19c-0.01,-0.03 -0.03,-0.03 -0.06,-0.02l-0.32 0.13c-0.02,0.02 -0.03,0.04 -0.02,0.07z"/>
    <path class="fil39" d="M77.96 73.07c-0.02,-0.01 -0.04,-0.02 -0.07,-0.02 -0.02,0 -0.04,0.01 -0.06,0.02l0 -0.13c0,-0.02 0.01,-0.03 0.04,-0.03l0.06 0c0.01,0 0.03,0.01 0.03,0.03l0 0.13zm0.03 0.01l0 0 0 -0.14c-0.01,-0.04 -0.03,-0.06 -0.06,-0.06l-0.06 0c-0.04,0 -0.06,0.02 -0.07,0.06l0 0.14c-0.05,0.03 -0.08,0.08 -0.09,0.14 0,0.01 0,0.01 0,0.01l0 0.31c0,0.04 0.02,0.06 0.06,0.06l0.25 0c0.04,0 0.06,-0.02 0.06,-0.06l0 -0.31c0,0 0,0 0,-0.01 -0.01,-0.06 -0.04,-0.11 -0.09,-0.14z"/>
    <path class="fil39" d="M80.86 71.75c-0.01,0 -0.02,-0.01 -0.04,-0.01 -0.01,0 -0.02,0 -0.03,0.01l0 -0.07c0,-0.01 0.01,-0.02 0.02,-0.02l0.03 0c0.01,0 0.02,0.01 0.02,0.02l0 0.07zm0.01 0l0 0 0 -0.07c0,-0.02 -0.01,-0.03 -0.03,-0.04l-0.03 0c-0.02,0.01 -0.03,0.02 -0.04,0.04l0 0.07c-0.03,0.02 -0.04,0.05 -0.05,0.08 0,0.01 0,0.01 0,0.01l0 0.17c0,0.02 0.02,0.03 0.03,0.03l0.14 0c0.02,0 0.03,-0.01 0.04,-0.03l0 -0.17c-0.01,0 -0.01,0 -0.01,-0.01 0,-0.03 -0.02,-0.06 -0.05,-0.08z"/>
   </g>
  </g>
  <g id="_2014522910768">
   <path class="fil40" d="M67.86 13.81c0.05,0 0.12,-0.01 0.17,-0.02 0.35,-0.1 0.56,-0.46 0.46,-0.8 -0.1,-0.36 -0.46,-0.56 -0.8,-0.46 -0.36,0.1 -0.56,0.46 -0.46,0.8 0.08,0.3 0.35,0.48 0.63,0.48z"/>
   <path class="fil40" d="M68.58 24.22c-0.2,0.29 -0.12,0.7 0.18,0.9 0.11,0.07 0.24,0.11 0.36,0.11 0.21,0 0.41,-0.09 0.54,-0.28 0.21,-0.3 0.13,-0.71 -0.17,-0.91 -0.3,-0.2 -0.71,-0.12 -0.91,0.18z"/>
   <path class="fil41" d="M65.81 3.73c-0.06,-0.02 -0.13,-0.05 -0.2,-0.07 -0.71,-0.25 -0.72,1.11 0,0.86 0.07,-0.02 0.14,-0.04 0.2,-0.07 0.36,-0.12 0.36,-0.6 0,-0.72z"/>
   <path class="fil41" d="M73.39 0.52c-1.12,0 -1.12,1.75 0,1.75 1.13,0 1.13,-1.75 0,-1.75z"/>
   <path class="fil2" d="M45.92 9.76c-1.12,0 -1.12,1.75 0,1.75 1.13,0 1.13,-1.75 0,-1.75z"/>
   <path class="fil40" d="M54.18 19.75c-1.31,0 -1.31,2.04 0,2.04 1.31,0 1.31,-2.04 0,-2.04z"/>
   <path class="fil40" d="M68 30.06c-0.7,0 -0.7,1.08 0,1.08 0.69,0 0.69,-1.08 0,-1.08z"/>
  </g>
  <path class="fil40" d="M102.96 47.01c-0.07,-0.03 -0.13,-0.05 -0.2,-0.07 -0.71,-0.25 -0.72,1.11 0,0.86 0.07,-0.02 0.13,-0.05 0.2,-0.07 0.35,-0.12 0.35,-0.6 0,-0.72z"/>
  <path class="fil40" d="M27.06 50.19c0.05,0 0.12,-0.02 0.17,-0.03 0.35,-0.1 0.55,-0.46 0.45,-0.8 -0.09,-0.35 -0.45,-0.56 -0.8,-0.46 -0.35,0.1 -0.55,0.46 -0.45,0.8 0.08,0.3 0.34,0.49 0.63,0.49z"/>
  <path class="fil40" d="M27.78 60.59c-0.2,0.29 -0.13,0.7 0.17,0.91 0.11,0.07 0.24,0.11 0.37,0.11 0.21,0 0.41,-0.1 0.54,-0.29 0.2,-0.3 0.12,-0.71 -0.18,-0.91 -0.3,-0.2 -0.7,-0.12 -0.9,0.18z"/>
  <path class="fil41" d="M14.65 61.97c-3.58,0 -3.58,5.55 0,5.55 3.57,0 3.57,-5.55 0,-5.55z"/>
  <path class="fil41" d="M20.73 41.97c-0.06,-0.02 -0.13,-0.05 -0.2,-0.07 -0.71,-0.25 -0.72,1.11 0,0.86 0.07,-0.02 0.14,-0.05 0.2,-0.07 0.36,-0.12 0.36,-0.6 0,-0.72z"/>
  <path class="fil40" d="M32.59 36.89c-1.13,0 -1.13,1.75 0,1.75 1.12,0 1.13,-1.75 0,-1.75z"/>
  <path class="fil41" d="M0.84 48c-1.12,0 -1.12,1.75 0,1.75 1.13,0 1.13,-1.75 0,-1.75z"/>
  <path class="fil41" d="M13.38 56.13c-1.31,0 -1.31,2.03 0,2.03 1.31,0 1.31,-2.03 0,-2.03z"/>
  <path class="fil40" d="M27.19 66.43c-0.69,0 -0.7,1.08 0,1.08 0.7,0 0.7,-1.08 0,-1.08z"/>
 </g>
</svg>
